<?xml version="1.0" standalone="no"?>
<!DOCTYPE svg PUBLIC "-//W3C//DTD SVG 1.1//EN" "http://www.w3.org/Graphics/SVG/1.1/DTD/svg11.dtd">
<svg xmlns="http://www.w3.org/2000/svg">
<defs >
<font id="NotoSerif" horiz-adv-x="596" ><font-face
    font-family="Noto Serif"
    units-per-em="1000"
    panose-1="2 2 5 2 6 5 5 2 2 4"
    ascent="1069"
    descent="-293"
    alphabetic="0" />
<glyph unicode=" " glyph-name="space" horiz-adv-x="260" />
<glyph unicode="!" glyph-name="exclam" horiz-adv-x="382" d="M157 228L104 714H278L226 228H157ZM192 -8Q158 -8 134 9T110 72Q110 118 134 135T192 152Q225 152 249 135T274 72Q274 27 250 10T192 -8Z" />
<glyph unicode="&quot;" glyph-name="quotedbl" horiz-adv-x="508" d="M112 439L67 714H223L178 439H112ZM330 439L285 714H441L396 439H330Z" />
<glyph unicode="#" glyph-name="numbersign" horiz-adv-x="559" d="M90 0L128 200H28V269H141L176 450H60V520H189L224 714H296L260 520H364L401 714H472L435 520H531V450H422L388 269H499V200H374L337 0H266L303 200H199L161 0H90ZM212 269H317L352 450H247L212 269Z" />
<glyph unicode="$" glyph-name="dollar" horiz-adv-x="559" d="M256 43Q199 45 159 57T95 90T60 135T49 183Q49 212 62 229T97 255T143 263Q143 213 157 178T196 122T256 96V312Q183 342 143 370T87 432T71 509Q71 557 94 594T160 654T256 683V760H312V684Q371
682 409 668T465 633T483 584Q483 553 456 532T373 511Q373 531 367 554T348 596T312 625V430Q342 415 376 401T440 367T490 316T509 235Q509 159 457 108T312 45V-79H256V43ZM312 98Q350 106 370 131T390 190Q390 222 371 244T312 287V98ZM256 630Q227 625 208
605T188 551Q188 533 194 518T214 487T256 457V630Z" />
<glyph unicode="%" glyph-name="percent" horiz-adv-x="906" d="M240 0L585 714H662L318 0H240ZM214 280Q119 280 77 341T34 503Q34 604 76 664T215 724Q305 724 349 664T394 503Q394 436 374 386T315 308T214 280ZM214 330Q239 330 253 350T274 410T280 503Q280
583 266 628T215 673Q190 673 175 653T154 595T147 503Q147 421 162 376T214 330ZM692 -10Q597 -10 555 51T512 213Q512 314 554 374T693 434Q783 434 827 374T872 213Q872 146 852 96T793 18T692 -10ZM692 40Q717 40 731 60T752 120T758 213Q758 293 744 338T693
383Q668 383 653 363T632 305T625 213Q625 131 640 86T692 40Z" />
<glyph unicode="&amp;" glyph-name="ampersand" horiz-adv-x="801" d="M301 -10Q219 -10 163 15T77 88T47 203Q47 262 70 298T133 358T218 400Q192 432 175 459T150 515T142 577Q142 621 164 654T232 705T343 724Q407 724 449 705T513 653T534 582Q534 542 518
512T468 456T382 407L531 251Q537 286 539 320T541 382V426H760V373H744Q722 373 702 369T666 350T641 305Q634 277 623 246T597 182L697 78Q711 63 731 58T779 53H788V0H590L521 73Q496 49 464 30T392 1T301 -10ZM326 57Q379 57 416 74T477 121L263 349Q235 329
220 306T200 256T194 198Q194 139 230 98T326 57ZM340 452Q382 476 397 505T413 581Q413 616 399 640T343 664Q309 664 294 640T278 580Q278 557 285 537T305 496T340 452Z" />
<glyph unicode="&apos;" glyph-name="quotesingle" horiz-adv-x="290" d="M112 439L67 714H223L178 439H112Z" />
<glyph unicode="(" glyph-name="parenleft" horiz-adv-x="400" d="M368 -139Q257 -94 189 -29T89 123T57 318Q57 426 88 512T188 663T368 772V709Q322 678 293 636T247 542T224 434T218 318Q218 258 224 201T246 93T292 -1T368 -75V-139Z" />
<glyph unicode=")" glyph-name="parenright" horiz-adv-x="400" d="M32 -75Q79 -44 108 -2T153 92T176 201T182 318Q182 377 176 434T154 542T108 635T32 709V772Q144 728 212 663T311 512T343 318Q343 210 312 124T212 -28T32 -139V-75Z" />
<glyph unicode="*" glyph-name="asterisk" horiz-adv-x="502" d="M196 367L228 529L80 424L35 523L191 563L35 604L80 703L228 597L196 760H308L272 598L422 703L467 603L311 563L467 524L422 424L272 528L308 367H196Z" />
<glyph unicode="+" glyph-name="plus" horiz-adv-x="559" d="M243 143V322H65V393H243V572H315V393H494V322H315V143H243Z" />
<glyph unicode="," glyph-name="comma" horiz-adv-x="294" d="M45 -102Q74 -91 93 -81T123 -57T133 -24Q133 -10 122 -3T97 13T71 37T60 83Q60 117 80 134T132 152Q174 152 199 123T224 42Q224 -22 184 -75T45 -154V-102Z" />
<glyph unicode="-" glyph-name="hyphen" horiz-adv-x="310" d="M25 220V325H285V220H25Z" />
<glyph unicode="." glyph-name="period" horiz-adv-x="294" d="M147 -8Q113 -8 89 9T65 72Q65 118 89 135T147 152Q180 152 204 135T229 72Q229 27 205 10T147 -8Z" />
<glyph unicode="/" glyph-name="slash" horiz-adv-x="288" d="M0 -121L218 760H288L72 -122L0 -121Z" />
<glyph unicode="0" glyph-name="zero" horiz-adv-x="559" d="M280 -10Q189 -10 135 36T58 165T34 359Q34 470 57 552T135 679T281 724Q368 724 421 679T500 552T525 358Q525 247 500 165T421 36T280 -10ZM280 55Q317 55 336 91T363 195T370 358Q370 454 363 521T337
623T281 659Q244 659 224 624T197 521T189 358Q189 263 196 195T223 91T280 55Z" />
<glyph unicode="1" glyph-name="one" horiz-adv-x="559" d="M97 0V53H179Q196 53 207 59T223 79T229 118V619Q191 573 161 544T100 515Q76 515 59 535T42 589Q72 597 109 613T196 666L266 718H378V118Q378 97 382 83T397 61T429 53H510V0H97Z" />
<glyph unicode="2" glyph-name="two" horiz-adv-x="559" d="M35 0V103L183 254Q245 317 278 365T324 457T337 553Q337 591 328 615T301 651T259 663Q225 663 205 644T176 586T167 490Q129 490 100 500T55 531T39 589Q39 625 63 656T137 705T259 724Q334 724 385
704T462 647T488 558Q488 530 480 504T455 448T408 385T334 306T230 205L130 110H363Q394 110 415 128T446 179L454 210H513L508 0H35Z" />
<glyph unicode="3" glyph-name="three" horiz-adv-x="559" d="M243 -10Q168 -10 121 7T51 51T28 110Q28 148 53 168T113 188Q113 124 147 92T236 60Q269 60 297 73T342 118T359 207Q359 264 319 301T204 338H142V400H208Q251 400 279 418T321 470T335 547Q335
601 314 632T252 663Q216 663 198 641T173 583T166 508Q104 508 70 529T36 597Q36 633 61 661T135 707T257 724Q364 724 426 682T488 561Q488 516 468 481T414 421T335 381Q365 375 396 363T454 331T496 280T513 206Q513 145 491 104T430 37T343 1T243 -10Z" />
<glyph unicode="4" glyph-name="four" horiz-adv-x="559" d="M180 0V53H208Q231 53 249 58T279 78T290 125V186H13V247L297 714H436V252H540V186H436V125Q436 94 447 79T477 58T518 53H531V0H180ZM83 252H290V427Q290 456 290 488T293 554T297 619Q292 607 282
587T259 545T235 503T218 475L83 252Z" />
<glyph unicode="5" glyph-name="five" horiz-adv-x="559" d="M245 -10Q170 -10 125 7T60 52T40 111Q40 146 62 163T120 180Q120 152 130 124T165 78T230 60Q263 60 291 74T336 124T353 220Q353 295 318 331T217 368Q179 368 154 363T106 350L60 368L92 714H470L475
532H418L410 566Q407 578 403 586T389 599T364 604H156L140 419Q151 423 169 426T208 432T250 434Q328 434 385 411T474 340T506 220Q506 168 491 130T449 65T389 22T318 -2T245 -10Z" />
<glyph unicode="6" glyph-name="six" horiz-adv-x="559" d="M293 -10Q219 -10 163 26T76 138T45 330Q45 413 62 484T115 609T204 693T330 724Q395 724 433 709T489 668T507 614Q507 583 480 560T387 536Q387 566 382 596T362 645T321 665Q282 665 253 634T207
545T186 401Q200 410 219 418T264 432T324 438Q415 438 469 384T524 231Q524 160 498 106T421 21T293 -10ZM296 56Q322 56 340 73T369 127T379 221Q379 302 355 339T287 377Q269 377 249 370T212 352T186 329Q187 185 218 121T296 56Z" />
<glyph unicode="7" glyph-name="seven" horiz-adv-x="559" d="M125 0L391 605H168Q141 605 127 592T110 554L104 504H44L49 714H526V665L250 0H125Z" />
<glyph unicode="8" glyph-name="eight" horiz-adv-x="559" d="M273 -10Q190 -10 136 16T56 85T30 182Q30 225 48 257T100 314T177 361Q137 384 110 411T68 470T53 542Q53 589 75 630T148 698T285 724Q356 724 403 702T474 640T498 549Q498 489 462 454T363 387Q423
358 459 328T512 264T529 189Q529 95 462 43T273 -10ZM278 47Q329 47 359 82T390 172Q390 205 375 229T328 276T244 321Q210 299 188 265T165 178Q165 120 196 84T278 47ZM302 421Q327 435 342 452T364 494T372 551Q372 580 362 606T331 649T279 666Q238 666 216
634T194 554Q194 520 206 496T243 455T302 421Z" />
<glyph unicode="9" glyph-name="nine" horiz-adv-x="559" d="M227 -10Q167 -10 131 6T79 49T63 103Q63 125 75 140T112 160Q122 130 137 106T175 68T232 53Q298 53 333 126T373 343Q358 324 338 309T291 284T231 275Q174 275 130 298T60 368T35 482Q35 554 62
608T141 693T264 724Q337 724 393 689T481 580T514 388Q514 306 498 234T448 107T359 21T227 -10ZM274 347Q309 347 334 365T373 414Q372 499 359 552T324 631T270 657Q242 657 222 638T191 582T180 488Q180 419 204 383T274 347Z" />
<glyph unicode=":" glyph-name="colon" horiz-adv-x="304" d="M152 385Q118 385 94 402T70 465Q70 511 94 528T152 545Q185 545 209 528T234 465Q234 420 210 403T152 385ZM152 -8Q118 -8 94 9T70 72Q70 118 94 135T152 152Q185 152 209 135T234 72Q234 27 210
10T152 -8Z" />
<glyph unicode=";" glyph-name="semicolon" horiz-adv-x="304" d="M55 -102Q84 -91 103 -81T133 -57T143 -24Q143 -10 132 -3T107 13T81 37T70 83Q70 117 90 134T142 152Q184 152 209 123T234 42Q234 -22 194 -75T55 -154V-102ZM152 385Q118 385 94 402T70 465Q70
511 94 528T152 545Q185 545 209 528T234 465Q234 420 210 403T152 385Z" />
<glyph unicode="&lt;" glyph-name="less" horiz-adv-x="559" d="M494 104L65 337V378L494 612V533L172 357L494 183V104Z" />
<glyph unicode="=" glyph-name="equal" horiz-adv-x="559" d="M63 419V489H496V419H63ZM63 225V295H496V225H63Z" />
<glyph unicode="&gt;" glyph-name="greater" horiz-adv-x="559" d="M65 104V183L387 357L65 533V612L494 378V337L65 104Z" />
<glyph unicode="?" glyph-name="question" horiz-adv-x="550" d="M195 351Q252 374 282 407T324 478T336 556Q336 604 318 634T258 664Q228 664 211 647T186 601T178 538Q117 538 77 555T37 608Q37 632 49 653T88 690T154 715T250 724Q321 724 376 702T463 639T495
540Q495 487 473 448T407 378T296 319L283 228H208L195 351ZM244 -8Q210 -8 186 9T162 72Q162 118 186 135T244 152Q277 152 301 135T326 72Q326 27 302 10T244 -8Z" />
<glyph unicode="@" glyph-name="at" horiz-adv-x="921" d="M466 -142Q381 -142 306 -118T173 -46T84 74T51 244Q51 345 86 430T186 579T338 678T530 714Q646 714 724 671T842 556T882 392Q882 317 864 259T817 160T751 98T676 77Q632 77 601 99T553 171H547Q533
145 514 124T470 90T409 77Q367 77 332 95T274 152T252 248Q252 288 267 336T314 429T397 501T521 529Q556 529 580 520T621 499L663 520H687L645 270Q644 262 642 249T639 223T638 202Q638 161 654 148T686 135Q706 135 726 151T763 200T790 279T801 388Q801 480
765 541T667 632T523 663Q452 663 385 634T265 549T181 416T149 238Q149 150 175 87T247 -15T353 -72T480 -91Q534 -91 584 -79T676 -47T750 -7L774 -45Q739 -71 692 -93T587 -129T466 -142ZM439 135Q460 135 475 145T501 172T519 210T530 253L570 457Q564 471
549 478T517 485Q479 485 452 459T408 392T383 310T375 238Q375 189 393 162T439 135Z" />
<glyph unicode="A" glyph-name="A" horiz-adv-x="753" d="M4 0V53H16Q34 53 48 59T73 80T96 126L313 714H450L659 125Q669 97 680 82T705 60T735 53H753V0H423V53H462Q477 53 491 62T505 92Q505 100 504 108T500 123T496 135L461 235H218L189 149Q187 141 184
131T179 111T177 92Q177 73 191 63T222 53H264V0H4ZM239 296H441L388 460Q381 483 373 509T358 563T345 613Q339 592 331 566T315 514T298 465L239 296Z" />
<glyph unicode="B" glyph-name="B" horiz-adv-x="672" d="M28 0V53H69Q84 53 95 57T114 76T121 118V597Q121 624 114 637T95 656T69 661H28V714H320Q463 714 534 670T606 532Q606 488 590 459T546 411T480 380V375Q526 364 561 340T616 281T636 196Q636 98 564
49T350 0H28ZM345 61Q412 61 440 92T468 199Q468 248 457 280T420 327T347 343H279V61H345ZM317 404Q364 404 390 417T427 458T438 532Q438 600 411 626T315 653H279V404H317Z" />
<glyph unicode="C" glyph-name="C" horiz-adv-x="668" d="M401 -10Q285 -10 208 36T93 164T55 358Q55 466 94 548T210 677T400 724Q477 724 527 709T603 667T628 608Q628 571 596 546T503 521Q503 554 493 586T459 639T393 660Q330 660 293 625T239 522T223 358Q223
262 242 198T306 102T425 70Q474 70 509 84T568 121T610 165Q618 159 622 147T627 122Q627 101 616 78T578 35T509 3T401 -10Z" />
<glyph unicode="D" glyph-name="D" horiz-adv-x="767" d="M28 0V53H70Q85 53 96 57T114 76T121 118V600Q121 627 114 640T96 657T70 661H28V714H358Q469 714 548 676T669 561T712 370Q712 261 672 178T554 47T358 0H28ZM335 62Q404 62 450 99T519 205T543 371Q543
466 520 528T450 622T336 653H279V62H335Z" />
<glyph unicode="E" glyph-name="E" horiz-adv-x="653" d="M28 0V53H70Q84 53 95 57T114 74T121 113V596Q121 625 115 638T97 656T70 661H28V714H583L587 530H517L512 577Q510 602 503 618T482 644T448 653H280V403H517V343H280V61H480Q500 61 513 71T533 98T544
137L552 184H621L614 0H28Z" />
<glyph unicode="F" glyph-name="F" horiz-adv-x="621" d="M28 0V53H70Q84 53 95 57T114 74T121 113V600Q121 627 114 640T96 657T70 661H28V714H582L587 530H517L512 578Q508 618 489 635T438 653H279V380H516V321H279V118Q279 90 286 76T305 58T331 53H393V0H28Z" />
<glyph unicode="G" glyph-name="G" horiz-adv-x="769" d="M423 -10Q299 -10 218 36T96 164T55 358Q55 466 97 548T222 677T428 724Q511 724 566 709T650 667T678 608Q678 573 645 548T549 523Q549 564 536 594T495 642T425 660Q352 660 308 625T243 522T223 358Q223
262 244 195T312 93T438 58Q457 58 475 59T511 65V212Q511 239 503 254T480 276T440 283H427V336H741V283H728Q708 283 695 276T675 253T669 208V44Q611 17 551 4T423 -10Z" />
<glyph unicode="H" glyph-name="H" horiz-adv-x="819" d="M28 0V53H70Q84 53 95 57T114 76T121 118V600Q121 627 114 640T96 657T70 661H28V714H373V661H330Q316 661 305 657T286 639T279 596V403H540V596Q540 625 533 638T515 656T489 661H446V714H791V661H749Q735
661 724 657T705 639T698 596V113Q698 87 705 74T724 57T749 53H791V0H446V53H489Q503 53 514 57T533 76T540 118V342H279V118Q279 90 286 76T304 58T330 53H373V0H28Z" />
<glyph unicode="I" glyph-name="I" horiz-adv-x="401" d="M28 0V53H70Q85 53 96 57T114 76T121 118V596Q121 625 115 638T97 656T70 661H28V714H373V661H331Q317 661 305 657T287 639T280 596V118Q280 90 286 76T305 58T331 53H373V0H28Z" />
<glyph unicode="J" glyph-name="J" horiz-adv-x="397" d="M-21 -240V-182H-3Q29 -182 58 -165T105 -109T123 -3V600Q123 627 116 640T98 657T72 661H30V714H375V661H333Q319 661 307 657T288 639T281 596V-2Q281 -70 259 -116T200 -189T114 -228T15 -240H-21Z" />
<glyph unicode="K" glyph-name="K" horiz-adv-x="734" d="M28 0V53H70Q84 53 95 57T114 74T121 113V600Q121 627 114 640T96 657T70 661H28V714H373V661H331Q317 661 305 657T286 639T279 596V363L434 532Q456 555 468 572T485 604T491 633Q491 650 479 656T435
662V714H706V662Q679 662 655 651T609 620T562 574L430 429L616 134Q636 103 653 86T689 61T730 53H734V0H680Q623 0 586 5T526 22T487 51T458 92L323 322L279 287V118Q279 90 286 76T305 58T331 53H373V0H28Z" />
<glyph unicode="L" glyph-name="L" horiz-adv-x="654" d="M28 0V53H70Q85 53 96 57T114 76T121 118V596Q121 625 115 638T97 656T70 661H28V714H373V661H331Q317 661 306 657T287 640T280 600V61H466Q489 61 505 71T532 100T549 148L565 223H621L614 0H28Z" />
<glyph unicode="M" glyph-name="M" horiz-adv-x="952" d="M28 0V53H70Q84 53 95 57T114 74T121 113V600Q121 627 114 640T96 657T70 661H28V714H316L482 231L641 714H924V661H882Q868 661 856 657T838 639T831 596V118Q831 90 837 76T856 58T882 53H924V0H604V53H614Q635
53 649 57T670 73T677 109V615L475 0H407L196 615V118Q196 90 204 76T230 58T270 53H276V0H28Z" />
<glyph unicode="N" glyph-name="N" horiz-adv-x="788" d="M28 0V53H70Q84 53 95 57T114 76T121 118V600Q121 627 114 640T96 657T70 661H28V714H250L603 215V600Q603 627 596 640T578 657T552 661H510V714H771V661H729Q715 661 704 657T685 639T678 596V0H586L196
551V118Q196 90 203 76T221 58T247 53H289V0H28Z" />
<glyph unicode="O" glyph-name="O" horiz-adv-x="787" d="M394 -10Q280 -10 205 36T93 165T55 359Q55 470 92 552T205 679T395 725Q503 725 578 680T693 552T732 358Q732 247 693 165T578 36T394 -10ZM394 55Q457 55 494 91T547 195T564 358Q564 454 548 521T494
624T395 660Q301 660 262 581T223 358Q223 263 240 195T294 91T394 55Z" />
<glyph unicode="P" glyph-name="P" horiz-adv-x="638" d="M28 0V53H70Q85 53 96 57T114 76T121 118V600Q121 627 114 640T96 657T70 661H28V714H335Q474 714 541 657T608 502Q608 457 592 416T542 343T451 292T313 273H279V113Q279 87 286 74T306 57T332 53H393V0H28ZM303
331Q340 331 366 340T408 369T432 421T440 498Q440 578 413 616T318 655H279V331H303Z" />
<glyph unicode="Q" glyph-name="Q" horiz-adv-x="787" d="M577 -240Q532 -240 489 -227T409 -186T350 -112T322 -4Q232 10 173 58T85 184T55 359Q55 470 92 552T205 679T395 725Q503 725 578 680T693 552T732 358Q732 265 704 191T622 68T489 0Q493 -55 506 -90T540
-146T584 -174T633 -182H649V-240H577ZM394 55Q488 55 526 135T564 358Q564 454 548 521T494 624T395 660Q333 660 295 625T240 522T223 358Q223 263 240 195T294 91T394 55Z" />
<glyph unicode="R" glyph-name="R" horiz-adv-x="707" d="M28 0V53H70Q84 53 95 57T114 74T121 113V600Q121 627 114 640T96 657T70 661H28V714H350Q445 714 505 693T595 631T624 529Q624 476 604 439T553 378T488 340L607 135Q633 92 656 73T707 53H711V0H678Q618
0 578 7T512 33T464 90L345 310H279V113Q279 87 286 74T305 57T330 53H373V0H28ZM335 368Q404 368 430 405T456 515Q456 566 444 596T405 641T333 655H279V368H335Z" />
<glyph unicode="S" glyph-name="S" horiz-adv-x="586" d="M264 -10Q197 -10 152 2T80 35T42 81T30 130Q30 164 46 184T88 214T143 223Q143 166 160 128T209 70T280 50Q339 50 371 81T404 158Q404 192 386 216T330 261T237 305Q167 334 126 365T68 435T50 523Q50
584 82 629T169 699T295 724Q369 724 416 709T485 667T508 608Q508 573 478 549T385 525Q385 553 375 585T341 640T279 663Q239 663 210 640T180 571Q180 543 193 519T242 472T345 421Q414 393 456 363T517 296T536 209Q536 145 503 96T408 18T264 -10Z" />
<glyph unicode="T" glyph-name="T" horiz-adv-x="653" d="M154 0V53H196Q211 53 222 57T240 76T247 118V653H167Q122 653 105 634T84 582L77 520H10L15 714H638L643 520H576L569 582Q565 615 548 634T486 653H406V118Q406 90 412 76T431 58T457 53H499V0H154Z" />
<glyph unicode="U" glyph-name="U" horiz-adv-x="747" d="M387 -10Q300 -10 238 13T143 86T110 218V600Q110 627 103 640T85 657T59 661H16V714H361V661H319Q305 661 294 657T275 639T268 596V210Q268 126 308 94T417 61Q462 61 494 76T544 124T562 208V600Q562
627 555 640T537 657T511 661H469V714H731V661H688Q674 661 663 657T644 639T637 596V206Q637 139 611 91T530 16T387 -10Z" />
<glyph unicode="V" glyph-name="V" horiz-adv-x="698" d="M85 613Q79 632 68 642T45 657T23 661H0V714H330V661H284Q270 661 258 654T245 628Q245 622 246 614T250 599T254 585L356 277Q361 262 367 240T378 194T385 153Q388 170 393 191T404 234T417 274L520
578Q523 585 525 594T530 613T532 627Q532 644 521 652T492 661H440V714H698V661H650Q641 661 634 656T620 635T602 588L398 0H298L85 613Z" />
<glyph unicode="W" glyph-name="W" horiz-adv-x="1067" d="M84 608Q78 629 69 640T47 656T13 661H0V714H334V661H311Q281 661 266 650T251 613Q251 605 254 589T261 559L328 328Q336 303 344 273T358 213T367 161Q374 193 382 221T399 279L531 707H604L742 325Q759
278 772 232T791 159Q796 183 802 214T816 278T831 344L884 560Q887 572 890 589T893 614Q893 640 878 650T829 661H806V714H1067V661H1048Q1029 661 1015 656T991 633T972 583L817 0H703L535 469L391 0H267L84 608Z" />
<glyph unicode="X" glyph-name="X" horiz-adv-x="732" d="M10 0V53H16Q40 53 57 61T89 86T120 123L295 351L130 608Q119 626 108 637T82 655T44 661H31V714H362V661H359Q325 661 313 653T300 632Q300 622 307 606T326 573L409 449L496 571Q505 585 514 602T523
632Q523 650 507 655T467 661H464V714H698V661H689Q670 661 655 654T625 632T590 589L445 391L629 106Q642 86 655 74T683 58T709 53H722V0H392V53H397Q427 53 442 61T457 86Q457 97 452 110T424 155L332 294L224 148Q218 140 212 130T202 109T198 87Q198 71 212
62T259 53H262V0H10Z" />
<glyph unicode="Y" glyph-name="Y" horiz-adv-x="693" d="M164 0V53H211Q227 53 240 56T261 73T269 114V253L84 608Q74 628 65 639T45 656T13 661H0V714H335V661H318Q288 661 273 649T258 616Q258 603 262 589T273 561L347 414Q363 383 373 358T391 310Q402 336
415 367T445 432L503 552Q514 574 517 589T520 612Q520 638 504 649T454 661H431V714H693V661H674Q657 661 646 655T625 631T598 583L428 252V115Q428 86 435 73T456 57T484 53H533V0H164Z" />
<glyph unicode="Z" glyph-name="Z" horiz-adv-x="666" d="M42 0V50L417 653H220Q173 653 158 628T138 562L133 508H61L66 714H600V663L224 61H440Q481 61 503 75T534 113T545 161L550 206H622L617 0H42Z" />
<glyph unicode="[" glyph-name="bracketleft" horiz-adv-x="414" d="M100 -128V760H377V707H334Q312 707 293 702T263 682T252 635V-3Q252 -34 263 -49T293 -70T334 -75H377V-128H100Z" />
<glyph unicode="\" glyph-name="backslash" horiz-adv-x="288" d="M216 -121L0 760H71L288 -121H216Z" />
<glyph unicode="]" glyph-name="bracketright" horiz-adv-x="414" d="M37 -128V-75H80Q103 -75 121 -70T151 -50T162 -3V635Q162 667 151 682T122 702T80 707H37V760H314V-128H37Z" />
<glyph unicode="^" glyph-name="asciicircum" horiz-adv-x="559" d="M46 262L257 714H300L512 262H434L278 605L124 262H46Z" />
<glyph unicode="_" glyph-name="underscore" horiz-adv-x="459" d="M-5 -142V-83H464V-142H-5Z" />
<glyph unicode="`" glyph-name="grave" horiz-adv-x="334" d="M226 606Q202 620 174 639T119 681T71 723T40 756V766H197Q208 744 225 717T261 664T294 619V606H226Z" />
<glyph unicode="a" glyph-name="a" horiz-adv-x="599" d="M202 -10Q158 -10 123 7T66 61T45 153Q45 234 101 273T269 316L351 319V374Q351 408 347 433T330 473T289 488Q264 488 249 474T228 436T222 380Q155 380 121 395T87 447Q87 484 115 506T190 538T293 549Q398
549 450 511T503 379V124Q503 97 508 82T527 60T563 53H567V0H381L360 69H351Q329 42 310 25T265 -1T202 -10ZM257 63Q286 63 307 78T339 123T351 191V266L306 263Q266 261 243 248T210 210T200 149Q200 121 206 102T225 73T257 63Z" />
<glyph unicode="b" glyph-name="b" horiz-adv-x="649" d="M397 -10Q339 -10 303 14T244 78H235L207 0H17V53H24Q43 53 60 58T89 78T100 123V640Q100 669 89 683T61 702T21 707H17V760H252V589Q252 574 251 552T248 506T244 468H251Q273 505 308 526T401 548Q499
548 550 482T602 270Q602 173 579 111T510 20T397 -10ZM355 65Q405 65 426 118T448 271Q448 373 426 423T354 474Q295 474 274 424T252 270Q252 204 261 159T292 89T355 65Z" />
<glyph unicode="c" glyph-name="c" horiz-adv-x="527" d="M295 -10Q222 -10 166 16T79 103T47 266Q47 374 79 435T167 523T292 549Q357 549 401 535T467 498T490 444Q490 423 480 404T441 372T361 359Q361 394 355 423T335 470T296 488Q267 488 246 469T213 401T201
267Q201 200 213 155T252 88T320 65Q355 65 383 75T433 104T465 146Q477 139 483 127T489 100Q489 75 469 50T406 7T295 -10Z" />
<glyph unicode="d" glyph-name="d" horiz-adv-x="649" d="M250 -10Q185 -10 139 19T70 109T46 267Q46 364 69 426T138 518T248 548Q304 548 340 526T397 468H404Q400 496 398 531T396 590V645Q396 673 385 686T356 703T315 707H307V760H548V123Q548 93 559 78T590
58T631 53H635V0H441L413 78H404Q382 38 346 14T250 -10ZM293 65Q352 65 374 115T396 269Q396 368 374 421T293 474Q260 474 240 450T210 381T200 268Q200 167 221 116T293 65Z" />
<glyph unicode="e" glyph-name="e" horiz-adv-x="571" d="M306 -10Q179 -10 113 62T47 265Q47 406 112 477T295 549Q404 549 466 488T529 308V257H201Q204 157 238 111T335 65Q387 65 423 88T476 146Q490 139 496 127T503 97Q503 69 482 45T418 5T306 -10ZM376
321Q376 398 358 441T297 484Q255 484 230 443T203 321H376Z" />
<glyph unicode="f" glyph-name="f" horiz-adv-x="407" d="M19 0V53H41Q56 53 72 57T100 76T112 118V468H23V536H112V573Q112 666 161 717T316 769Q381 769 417 760T468 734T483 696Q483 674 470 660T429 638T360 631Q360 647 355 666T340 698T310 712Q285 712
275 685T264 591V536H402V468H264V118Q264 90 275 76T304 58T335 53H382V0H19Z" />
<glyph unicode="g" glyph-name="g" horiz-adv-x="560" d="M236 -240Q118 -240 60 -205T2 -101Q2 -65 17 -41T63 -2T137 15Q110 26 87 47T64 104Q64 137 89 162T153 209Q109 225 80 264T51 364Q51 452 102 500T260 549Q295 549 326 540T379 518Q397 537 413 549T446
568T483 574Q519 574 537 557T555 517Q555 495 540 478T484 460Q484 480 472 491T446 502Q438 502 428 499T413 491Q433 469 447 435T462 364Q462 288 413 239T260 189Q249 189 230 190T202 192Q188 186 177 173T166 141Q166 125 179 117T213 109H334Q401 109 443
91T505 39T526 -44Q526 -136 455 -188T236 -240ZM238 -180Q297 -180 334 -169T388 -135T406 -80Q406 -48 386 -36T325 -23H209Q189 -23 169 -28T134 -50T120 -99Q120 -126 133 -144T173 -171T238 -180ZM257 248Q284 248 298 262T319 302T325 365Q325 402 319 430T298
473T256 489Q230 489 215 473T194 429T187 364Q187 312 202 280T257 248Z" />
<glyph unicode="h" glyph-name="h" horiz-adv-x="667" d="M20 0V53H22Q45 53 62 58T90 77T101 122L100 646Q100 673 88 686T60 703T29 707H17V760H252V595Q252 569 250 540T246 489T244 468H253Q273 506 296 523T347 544T406 549Q483 549 527 503T571 356V124Q571
93 578 78T601 58T638 53H641V0H419V329Q419 394 401 429T339 464Q306 464 287 443T260 386T252 309L253 118Q253 90 261 76T286 58T324 53H327V0H20Z" />
<glyph unicode="i" glyph-name="i" horiz-adv-x="352" d="M17 0V53H29Q44 53 60 57T88 76T100 118V422Q100 449 88 462T60 479T29 483H17V536H252V118Q252 90 263 76T292 58T323 53H335V0H17ZM171 626Q135 626 111 643T86 698Q86 736 111 753T172 770Q206 770
231 753T257 698Q257 661 232 644T171 626Z" />
<glyph unicode="j" glyph-name="j" horiz-adv-x="345" d="M-20 -240V-178H-13Q24 -178 49 -162T87 -107T100 0V417Q100 446 89 460T60 478T20 483H17V536H252V-8Q252 -97 220 -148T131 -219T0 -240H-20ZM172 626Q136 626 112 643T87 698Q87 736 112 753T173 770Q207
770 232 753T258 698Q258 661 233 644T172 626Z" />
<glyph unicode="k" glyph-name="k" horiz-adv-x="636" d="M17 0V53H29Q44 53 60 57T88 76T100 118V646Q100 673 88 686T60 703T29 707H17V760H252V374Q252 361 251 343T250 309T248 281T247 270L373 411Q384 424 390 432T398 447T400 459Q400 472 387 479T348
486V536H600V486Q583 486 566 481T532 466T497 439T459 401L396 329L529 131Q555 91 582 72T633 53H636V0H622Q567 0 530 2T466 13T421 40T381 89L292 229L252 199V118Q252 90 263 76T292 58T323 53H335V0H17Z" />
<glyph unicode="l" glyph-name="l" horiz-adv-x="352" d="M17 0V53H29Q44 53 60 57T88 76T100 118V646Q100 673 88 686T60 703T29 707H17V760H252V118Q252 90 263 76T292 58T323 53H335V0H17Z" />
<glyph unicode="m" glyph-name="m" horiz-adv-x="986" d="M20 0V53H22Q45 53 62 58T90 77T100 122V421Q100 449 91 463T66 481T28 486H25V536H235L248 465H253Q273 503 296 520T347 543T406 549Q443 549 472 541T523 514T557 465H566Q586 503 611 520T665 543T725
549Q802 549 846 503T890 356V124Q890 93 897 78T920 58T957 53H960V0H738V329Q738 394 720 429T658 464Q627 464 608 445T580 393T571 321V124Q571 94 578 79T601 58T638 53H641V0H419V329Q419 394 401 429T339 464Q306 464 287 443T260 386T252 309V118Q252 90
261 76T286 58T324 53H327V0H20Z" />
<glyph unicode="n" glyph-name="n" horiz-adv-x="667" d="M20 0V53H22Q45 53 62 58T90 77T100 122V418Q100 446 91 460T66 478T28 483H25V536H235L248 465H253Q273 503 296 520T347 543T406 549Q483 549 527 503T571 356V124Q571 93 578 78T601 58T638 53H641V0H419V329Q419
394 401 429T339 464Q306 464 287 443T260 386T252 309V118Q252 90 261 76T286 58T324 53H327V0H20Z" />
<glyph unicode="o" glyph-name="o" horiz-adv-x="613" d="M305 -10Q185 -10 116 59T47 270Q47 411 113 480T308 549Q428 549 497 480T566 270Q566 129 500 60T305 -10ZM307 53Q346 53 368 77T401 150T411 270Q411 377 388 431T306 485Q248 485 225 432T202 270Q202
164 225 109T307 53Z" />
<glyph unicode="p" glyph-name="p" horiz-adv-x="645" d="M13 -240V-187H25Q40 -187 56 -183T84 -164T96 -122V413Q96 444 87 458T63 478T29 483H22V536H218L236 458H240Q262 497 298 521T393 546Q493 546 545 479T598 266Q598 121 547 55T397 -12Q340 -12 305
9T247 68H240Q242 54 244 31T247 -15T248 -53V-122Q248 -150 259 -164T288 -182T319 -187H341V-240H13ZM350 62Q400 62 422 112T444 265Q444 365 423 418T351 471Q311 471 289 448T257 378T248 266Q248 197 257 152T288 84T350 62Z" />
<glyph unicode="q" glyph-name="q" horiz-adv-x="648" d="M297 -240V-187H315Q337 -187 355 -183T385 -166T396 -125V-52Q396 -31 397 -9T400 33T404 70H397Q376 36 340 13T248 -10Q151 -10 99 57T46 269Q46 365 69 426T139 517T250 546Q309 546 345 523T404 458H413L433
536H635V483H631Q609 483 590 478T560 459T548 413V-125Q548 -152 559 -165T588 -183T629 -187H647V-240H297ZM293 64Q323 64 342 77T374 116T391 180T396 267Q396 336 387 381T355 449T293 471Q260 471 240 449T210 381T200 268Q200 168 221 116T293 64Z" />
<glyph unicode="r" glyph-name="r" horiz-adv-x="523" d="M20 0V53H23Q46 53 63 58T90 78T100 125V415Q100 445 91 459T66 478T28 483H25V536H227L247 458H252Q265 488 282 508T325 538T393 548Q452 548 480 527T508 467Q508 421 475 396T381 370Q381 398 377
416T362 443T332 453Q306 453 290 435T266 391T255 337T252 293V120Q252 91 261 77T286 58T322 53H354V0H20Z" />
<glyph unicode="s" glyph-name="s" horiz-adv-x="488" d="M231 -10Q159 -10 115 5T50 47T30 107Q30 140 46 156T84 177T123 183Q123 121 152 85T231 49Q283 49 306 69T330 117Q330 139 319 155T281 186T207 217Q153 236 116 258T60 312T40 389Q40 469 99 508T255
548Q318 548 356 535T412 500T430 455Q430 421 407 404T328 386Q328 436 306 463T240 491Q208 491 184 476T159 429Q159 408 170 392T212 361T296 327Q341 312 375 291T428 239T448 166Q448 83 392 37T231 -10Z" />
<glyph unicode="t" glyph-name="t" horiz-adv-x="405" d="M243 -10Q176 -10 136 25T96 148V468H21V519Q53 519 78 532T119 561Q134 577 146 601T165 660H248V536H376V468H248V158Q248 113 263 92T314 71Q334 71 351 73T385 80V15Q369 8 333 -1T243 -10Z" />
<glyph unicode="u" glyph-name="u" horiz-adv-x="667" d="M258 -10Q180 -10 138 38T96 188V412Q96 441 89 456T67 477T28 483H26V536H248V216Q248 173 254 142T278 93T324 75Q356 75 376 93T405 146T415 227V419Q415 448 405 461T379 479T343 483H340V536H567V116Q567
87 575 74T599 57T634 53H642V0H443L421 71H416Q386 19 346 5T258 -10Z" />
<glyph unicode="v" glyph-name="v" horiz-adv-x="606" d="M80 435Q73 454 63 464T38 479T0 483V536H310V483H268Q253 483 244 475T235 451Q235 439 238 427T244 407L311 218Q319 197 326 175T338 131T347 93Q352 117 360 147T375 198L443 399Q448 413 451 427T454
454Q454 471 443 477T415 483H386V536H606V483H586Q573 483 563 478T543 458T521 410L376 0H244L80 435Z" />
<glyph unicode="w" glyph-name="w" horiz-adv-x="856" d="M71 430Q64 451 55 462T33 478T0 483H-3V536H290V483H277Q247 483 232 475T217 441Q217 433 219 421T225 398L262 268Q269 244 274 219T284 171T292 131H295Q298 148 302 165T312 202T327 246L429 531H494L592
236Q598 218 602 203T609 175T614 151T618 131H621Q626 156 631 178T648 238L692 384Q696 397 698 411T701 434Q701 460 685 471T635 483H628V536H857V483H844Q825 483 812 477T790 455T769 405L640 0H532L423 332L308 0H199L71 430Z" />
<glyph unicode="x" glyph-name="x" horiz-adv-x="646" d="M11 0V53H20Q44 53 61 59T93 79T129 117L255 269L129 430Q115 448 101 459T73 477T43 483H30V536H344V483H341Q307 483 296 475T284 454Q284 444 289 434T307 408L363 340L410 397Q422 412 428 426T435
453Q435 471 421 477T384 483H381V536H612V483H603Q584 483 569 478T539 459T502 419L399 293L546 106Q561 87 574 76T601 59T626 53H639V0H321V53H326Q356 53 371 61T386 86Q386 97 380 111T348 155L291 224L221 137Q212 125 206 113T200 87Q200 71 214 62T262
53H265V0H11Z" />
<glyph unicode="y" glyph-name="y" horiz-adv-x="579" d="M27 -182Q79 -182 116 -170T178 -134T219 -78T248 -5L68 435Q61 453 51 461T30 473T4 477H0V536H285V483H282Q254 483 238 475T222 446Q222 438 225 427T232 407L301 224Q311 199 316 180T325 147T329
118Q331 139 339 165T351 198L417 394Q421 404 424 419T427 443Q427 465 409 473T358 483H354V536H579V483H575Q557 483 544 476T520 453T499 410L348 0Q322 -73 299 -119T244 -192T166 -229T44 -240H27V-182Z" />
<glyph unicode="z" glyph-name="z" horiz-adv-x="529" d="M18 0V41L313 468H167Q145 468 133 454T110 398L104 374H44L56 536H488V493L192 68H368Q398 68 412 87T434 149L440 181H499L494 0H18Z" />
<glyph unicode="{" glyph-name="braceleft" horiz-adv-x="442" d="M317 -125Q233 -125 190 -85T146 23V194Q146 232 131 251T89 279T30 288V349Q63 350 89 357T130 385T146 442V614Q146 684 189 722T317 760H412V707H373Q330 707 316 682T302 610V440Q302 395
276 366T192 323V315Q249 301 275 272T302 197V26Q302 -21 316 -46T373 -72H412V-125H317Z" />
<glyph unicode="|" glyph-name="bar" horiz-adv-x="559" d="M243 -240V760H315V-240H243Z" />
<glyph unicode="}" glyph-name="braceright" horiz-adv-x="442" d="M30 -125V-72H69Q112 -72 126 -47T140 26V197Q140 242 166 271T250 315V323Q192 337 166 366T140 440V610Q140 657 126 682T69 707H30V760H125Q209 760 252 722T296 614V442Q296 405 311 385T353
358T412 349V288Q380 287 354 279T312 252T296 194V23Q296 -45 253 -85T125 -125H30Z" />
<glyph unicode="~" glyph-name="asciitilde" horiz-adv-x="559" d="M46 262Q46 298 52 332T74 393T114 435T178 451Q202 451 220 444T259 423T306 384Q337 358 351 347T381 335Q399 335 411 348T430 386T438 451H512Q511 411 504 377T481 317T442 277T383 262Q362
262 343 268T303 289T256 327Q233 348 220 359T199 374T180 378Q150 378 135 351T119 262H46Z" />
<glyph unicode="&#xa0;" glyph-name="uni00A0" horiz-adv-x="260" />
<glyph unicode="&#xa1;" glyph-name="exclamdown" horiz-adv-x="382" d="M225 306L278 -180H104L156 306H225ZM190 542Q225 542 248 525T272 462Q272 416 249 399T190 382Q157 382 133 399T108 462Q108 507 132 524T190 542Z" />
<glyph unicode="&#xa2;" glyph-name="cent" horiz-adv-x="559" d="M279 83Q212 88 162 117T85 204T57 358Q57 458 86 518T165 606T279 640V714H341V640Q399 637 438 623T497 586T518 536Q518 520 513 505T493 477T453 458T389 451Q389 494 379 529T341 575V157Q375
158 403 169T452 198T484 238Q497 231 503 219T509 192Q509 169 491 146T436 105T341 83V0H279V83ZM279 573Q258 564 243 539T219 471T210 359Q210 308 217 270T240 207T279 169V573Z" />
<glyph unicode="&#xa3;" glyph-name="sterling" horiz-adv-x="559" d="M414 -10Q383 -10 351 -3T295 12Q270 20 243 27T196 34Q162 34 136 26T82 4L38 -19V71L70 91Q91 104 112 124T147 174T161 244Q161 273 155 297T139 346H24V407H117Q107 432 96 468T85 543Q85
630 142 677T307 724Q379 724 422 709T485 667T505 608Q505 573 474 550T380 527Q380 558 374 589T350 641T300 663Q263 663 241 635T218 547Q218 520 223 494T236 446T251 407H428V346L270 347Q277 325 281 308T285 265Q285 239 275 215T245 170T195 128L198 123Q204
125 221 128T257 132Q271 132 283 130T309 123T345 112Q367 105 385 101T425 97Q448 97 466 106T501 132T530 171V59Q517 36 500 21T462 -2T414 -10Z" />
<glyph unicode="&#xa4;" glyph-name="currency" horiz-adv-x="559" d="M117 146L66 197L124 255Q110 277 103 302T95 356Q95 385 103 411T127 460L67 520L117 570L177 510Q199 524 224 532T278 540Q306 540 331 532T379 509L441 571L491 520L430 458Q445 436 453
411T462 356Q462 328 454 303T432 255L491 196L441 146L382 205Q360 190 334 182T278 173Q250 173 224 181T175 204L117 146ZM278 240Q311 240 337 255T378 297T393 356Q393 389 378 415T337 457T278 473Q246 473 220 458T179 416T163 356Q163 324 178 298T220
256T278 240Z" />
<glyph unicode="&#xa5;" glyph-name="yen" horiz-adv-x="559" d="M105 0V53H128Q150 53 168 55T197 69T210 110V165H70V224H210V282H70V341H193L75 608Q62 638 49 649T10 661H7V714H293V661H286Q256 661 243 652T229 622Q229 610 233 596T245 563L283 468Q296
437 305 407T318 357Q320 366 324 377T333 402T344 430L386 540Q399 574 402 591T406 621Q406 641 392 651T345 661H342V714H550V661H547Q522 661 507 646T471 583L368 341H499V282H359V224H499V165H359V115Q359 84 370 71T400 56T441 53H464V0H105Z" />
<glyph unicode="&#xa6;" glyph-name="brokenbar" horiz-adv-x="559" d="M243 360V760H315V360H243ZM243 -240V160H315V-240H243Z" />
<glyph unicode="&#xa7;" glyph-name="section" horiz-adv-x="544" d="M276 -113Q220 -113 183 -102T123 -72T92 -31T82 15Q82 41 93 58T125 85T171 94Q171 50 184 16T223 -39T289 -59Q321 -59 344 -47T379 -13T391 38Q391 59 385 75T361 107T309 142T219 189Q164
217 130 245T81 305T65 377Q65 411 83 438T130 480Q113 498 100 528T87 599Q87 650 112 686T182 741T284 760Q343 760 383 746T443 705T463 646Q463 615 439 595T368 574Q368 604 361 634T334 684T280 705Q238 705 213 681T187 611Q187 579 201 560T242 526T306
493Q377 460 421 430T485 368T506 292Q506 256 487 224T442 174Q453 160 461 143T473 106T477 67Q477 14 455 -26T388 -90T276 -113ZM395 214Q400 222 404 233T408 257Q408 280 398 300T362 340T286 385Q253 401 224 416T170 447Q163 439 159 428T154 403Q154 376
167 356T210 316T295 270Q327 254 351 241T395 214Z" />
<glyph unicode="&#xa8;" glyph-name="dieresis" horiz-adv-x="577" d="M391 626Q367 626 349 640T331 688Q331 723 349 736T391 750Q414 750 432 737T450 688Q450 654 432 640T391 626ZM185 626Q162 626 144 640T126 688Q126 723 144 736T185 750Q208 750 226
737T245 688Q245 654 227 640T185 626Z" />
<glyph unicode="&#xa9;" glyph-name="copyright" horiz-adv-x="845" d="M422 -10Q342 -10 275 16T159 90T82 206T55 358Q55 441 82 508T158 624T274 699T422 725Q502 725 569 699T686 625T763 509T790 357Q790 273 763 206T687 90T570 16T422 -10ZM428 124Q358
124 311 153T241 235T217 358Q217 427 242 479T318 560T442 590Q490 590 521 579T567 550T583 508Q583 486 563 473T513 460Q513 479 506 497T483 527T440 539Q369 539 339 492T309 358Q309 300 324 260T369 198T441 176Q488 176 521 197T567 243Q575 239 580 231T585
211Q585 191 568 171T515 138T428 124ZM423 50Q491 50 546 71T640 133T701 231T723 358Q723 429 702 485T640 582T545 643T423 665Q334 665 266 628T160 521T122 357Q122 285 144 228T206 131T302 71T423 50Z" />
<glyph unicode="&#xaa;" glyph-name="ordfeminine" horiz-adv-x="420" d="M138 380Q88 380 59 406T29 482Q29 532 71 555T198 583L243 585V612Q243 641 236 658T203 676Q179 676 172 658T165 614Q113 614 85 624T56 657Q56 680 76 693T130 713T205 719Q281 719
318 696T356 615V468Q356 446 365 438T399 430V386H282L258 435H251Q239 421 223 408T186 388T138 380ZM182 436Q203 436 216 445T236 469T243 505V546L220 545Q193 544 176 537T152 517T144 484Q144 458 155 447T182 436Z" />
<glyph unicode="&#xab;" glyph-name="guillemotleft" horiz-adv-x="554" d="M419 70L266 244V296L419 470H489L388 270L489 70H419ZM218 70L65 244V296L218 470H288L187 270L288 70H218Z" />
<glyph unicode="&#xac;" glyph-name="logicalnot" horiz-adv-x="559" d="M422 143V322H65V393H494V143H422Z" />
<glyph unicode="&#xad;" glyph-name="uni00AD" horiz-adv-x="310" d="M25 220V325H285V220H25Z" />
<glyph unicode="&#xae;" glyph-name="registered" horiz-adv-x="845" d="M422 -10Q342 -10 275 16T159 90T82 206T55 358Q55 441 82 508T158 624T274 699T422 725Q502 725 569 699T686 625T763 509T790 357Q790 273 763 206T687 90T570 16T422 -10ZM423 50Q491
50 546 71T640 133T701 231T723 358Q723 429 702 485T640 582T545 643T423 665Q334 665 266 628T160 521T122 357Q122 285 144 228T206 131T302 71T423 50ZM232 141V175H245Q265 175 279 181T294 210V503Q294 526 280 532T245 538H232V579H415Q504 579 547 548T591
454Q591 421 577 399T542 362T496 340L585 201Q594 185 604 180T636 175V141H531L421 324H372V210Q372 187 387 181T421 175H435V141H232ZM414 368Q468 368 488 389T508 453Q508 496 486 514T411 532H372V368H414Z" />
<glyph unicode="&#xaf;" glyph-name="overscore" horiz-adv-x="459" d="M-5 760V819H464V760H-5Z" />
<glyph unicode="&#xb0;" glyph-name="degree" horiz-adv-x="400" d="M199 423Q130 423 87 465T43 574Q43 619 63 653T118 706T199 726Q245 726 280 707T336 653T356 574Q356 530 336 496T281 442T199 423ZM200 491Q238 491 259 514T280 575Q280 613 259 635T200
658Q163 658 141 636T119 575Q119 537 140 514T200 491Z" />
<glyph unicode="&#xb1;" glyph-name="plusminus" horiz-adv-x="559" d="M65 0V71H494V0H65ZM243 143V322H65V393H243V572H315V393H494V322H315V143H243Z" />
<glyph unicode="&#xb2;" glyph-name="uni00B2" horiz-adv-x="400" d="M37 387V459L147 551Q182 580 200 606T226 659T234 712Q234 744 224 762T187 780Q164 780 153 765T139 727T135 681Q102 681 74 695T45 741Q45 765 61 784T109 814T187 825Q241 825 275 812T325
775T341 718Q341 689 329 663T286 606T197 529L115 465H275Q289 465 297 469T310 481T317 498L322 525H359L355 387H37Z" />
<glyph unicode="&#xb3;" glyph-name="uni00B3" horiz-adv-x="400" d="M165 380Q122 380 92 390T47 419T31 462Q31 482 44 496T87 511Q87 477 108 454T166 431Q204 431 229 450T254 513Q254 547 232 566T155 586H122V633H155Q193 633 213 655T234 715Q234 746 224
762T187 779Q156 779 145 753T133 692Q93 692 70 700T46 735Q46 760 62 780T111 812T189 824Q258 824 299 798T341 725Q341 682 319 656T249 617V612Q284 607 308 594T345 561T358 511Q358 474 340 449T292 409T230 387T165 380Z" />
<glyph unicode="&#xb4;" glyph-name="acute" horiz-adv-x="334" d="M40 619Q55 638 73 664T109 717T137 766H294V756Q285 743 264 723T215 681T160 640T108 606H40V619Z" />
<glyph unicode="&#xb5;" glyph-name="uni00B5" horiz-adv-x="665" d="M175 -240Q138 -240 110 -211T81 -109Q81 -79 82 -47T86 25T90 113T93 225V536H245V206Q245 170 251 141T275 93T321 75Q342 75 359 86T387 117T405 166T412 230V536H564V138Q564 92 581 73T632
53H639V0H552Q501 0 468 24T422 87H417Q394 43 364 17T280 -10Q239 -10 210 5T160 49Q160 7 163 -28T178 -89T210 -132T267 -153Q267 -190 243 -215T175 -240Z" />
<glyph unicode="&#xb6;" glyph-name="paragraph" horiz-adv-x="627" d="M169 -111V-58H182Q205 -58 223 -54T253 -34T264 13V386H193Q135 386 102 413T54 485T40 582Q40 636 55 676T104 738T195 760H587V707H574Q552 707 533 702T503 682T492 635V13Q492 -18 503
-33T533 -53T574 -58H587V-111H420V698H336V-111H169Z" />
<glyph unicode="&#xb7;" glyph-name="middot" horiz-adv-x="294" d="M147 275Q113 275 89 292T65 355Q65 401 89 418T147 435Q180 435 204 418T229 355Q229 310 205 293T147 275Z" />
<glyph unicode="&#xb8;" glyph-name="cedilla" horiz-adv-x="333" d="M137 -240Q121 -240 95 -237T50 -229V-168Q68 -172 86 -174T118 -176Q147 -176 163 -166T179 -130Q179 -101 158 -91T104 -79L125 9H182L172 -34Q205 -36 229 -48T266 -79T279 -126Q279 -179
240 -209T137 -240Z" />
<glyph unicode="&#xb9;" glyph-name="uni00B9" horiz-adv-x="400" d="M63 387V431H114Q133 431 146 437T159 469V753Q144 735 131 721T105 699T81 691Q67 691 57 705T47 740Q59 743 72 748T102 762T139 786L184 819H258V469Q258 444 271 438T304 431H345V387H63Z" />
<glyph unicode="&#xba;" glyph-name="ordmasculine" horiz-adv-x="437" d="M218 380Q131 380 83 422T35 550Q35 636 82 677T220 719Q304 719 353 678T402 550Q402 465 355 423T218 380ZM219 430Q256 430 271 460T286 550Q286 609 271 638T218 667Q181 667 167
638T152 550Q152 491 167 461T219 430Z" />
<glyph unicode="&#xbb;" glyph-name="guillemotright" horiz-adv-x="554" d="M266 70L367 270L266 470H336L489 296V244L336 70H266ZM65 70L166 270L65 470H135L288 296V244L135 70H65Z" />
<glyph unicode="&#xbc;" glyph-name="onequarter" horiz-adv-x="840" d="M277 543V587H328Q347 587 360 593T373 625V909Q358 891 345 877T319 855T295 847Q281 847 271 861T261 896Q273 899 286 904T316 918T353 942L398 975H472V625Q472 600 485 594T518 587H559V543H277ZM204
0L561 714H638L282 0H204ZM575 0V44H603Q620 44 632 50T644 82V117H454V157L653 432H743V170H821V117H743V82Q743 57 756 51T785 44H805V0H575ZM520 170H644V290Q644 306 645 321T649 355Q645 347 641 339T634 327L520 170Z" />
<glyph unicode="&#xbd;" glyph-name="onehalf" horiz-adv-x="840" d="M277 543V587H328Q347 587 360 593T373 625V909Q358 891 345 877T319 855T295 847Q281 847 271 861T261 896Q273 899 286 904T316 918T353 942L398 975H472V625Q472 600 485 594T518 587H559V543H277ZM184
0L541 714H618L262 0H184ZM491 0V72L601 164Q636 193 654 219T680 272T688 325Q688 357 678 375T641 393Q618 393 607 378T593 340T589 294Q556 294 528 308T499 354Q499 378 515 397T563 427T641 438Q695 438 729 425T779 388T795 331Q795 302 783 276T740 219T651
142L569 78H729Q743 78 751 82T764 94T771 111L776 138H813L809 0H491Z" />
<glyph unicode="&#xbe;" glyph-name="threequarters" horiz-adv-x="840" d="M165 536Q122 536 92 546T47 575T31 618Q31 638 44 652T87 667Q87 633 108 610T166 587Q204 587 229 606T254 669Q254 703 232 722T155 742H122V789H155Q193 789 213 811T234 871Q234
902 224 918T187 935Q156 935 145 909T133 848Q93 848 70 856T46 891Q46 916 62 936T111 968T189 980Q258 980 299 954T341 881Q341 838 319 812T249 773V768Q284 763 308 750T345 717T358 667Q358 630 340 605T292 565T230 543T165 536ZM224 0L581 714H658L302
0H224ZM575 0V44H603Q620 44 632 50T644 82V117H454V157L653 432H743V170H821V117H743V82Q743 57 756 51T785 44H805V0H575ZM520 170H644V290Q644 306 645 321T649 355Q645 347 641 339T634 327L520 170Z" />
<glyph unicode="&#xbf;" glyph-name="questiondown" horiz-adv-x="550" d="M355 181Q298 158 268 125T226 54T214 -24Q214 -72 232 -102T292 -132Q322 -132 339 -115T364 -69T372 -6Q434 -6 473 -23T513 -76Q513 -100 501 -121T462 -158T396 -183T300 -192Q230
-192 175 -170T87 -107T55 -8Q55 46 77 85T143 155T254 213L267 304H342L355 181ZM306 540Q341 540 364 523T388 460Q388 414 365 397T306 380Q273 380 249 397T224 460Q224 505 248 522T306 540Z" />
<glyph unicode="&#xc0;" glyph-name="Agrave" horiz-adv-x="753" d="M4 0V53H16Q34 53 48 59T73 80T96 126L313 714H450L659 125Q669 97 680 82T705 60T735 53H753V0H423V53H462Q477 53 491 62T505 92Q505 100 504 108T500 123T496 135L461 235H218L189 149Q187
141 184 131T179 111T177 92Q177 73 191 63T222 53H264V0H4ZM239 296H441L388 460Q381 483 373 509T358 563T345 613Q339 592 331 566T315 514T298 465L239 296ZM370 771Q346 785 318 804T263 846T215 888T184 921V931H341Q352 909 369 882T405 829T438 784V771H370Z"
/>
<glyph unicode="&#xc1;" glyph-name="Aacute" horiz-adv-x="753" d="M4 0V53H16Q34 53 48 59T73 80T96 126L313 714H450L659 125Q669 97 680 82T705 60T735 53H753V0H423V53H462Q477 53 491 62T505 92Q505 100 504 108T500 123T496 135L461 235H218L189 149Q187
141 184 131T179 111T177 92Q177 73 191 63T222 53H264V0H4ZM239 296H441L388 460Q381 483 373 509T358 563T345 613Q339 592 331 566T315 514T298 465L239 296ZM313 784Q328 803 346 829T382 882T410 931H567V921Q558 908 537 888T488 846T433 805T381 771H313V784Z"
/>
<glyph unicode="&#xc2;" glyph-name="Acircumflex" horiz-adv-x="753" d="M4 0V53H16Q34 53 48 59T73 80T96 126L313 714H450L659 125Q669 97 680 82T705 60T735 53H753V0H423V53H462Q477 53 491 62T505 92Q505 100 504 108T500 123T496 135L461 235H218L189 149Q187
141 184 131T179 111T177 92Q177 73 191 63T222 53H264V0H4ZM239 296H441L388 460Q381 483 373 509T358 563T345 613Q339 592 331 566T315 514T298 465L239 296ZM203 784Q219 803 240 829T282 882T313 931H448Q459 909 479 882T521 829T558 784V771H489Q475 782
455 798T415 831T380 861Q365 848 345 831T306 798T272 771H203V784Z" />
<glyph unicode="&#xc3;" glyph-name="Atilde" horiz-adv-x="753" d="M4 0V53H16Q34 53 48 59T73 80T96 126L313 714H450L659 125Q669 97 680 82T705 60T735 53H753V0H423V53H462Q477 53 491 62T505 92Q505 100 504 108T500 123T496 135L461 235H218L189 149Q187
141 184 131T179 111T177 92Q177 73 191 63T222 53H264V0H4ZM239 296H441L388 460Q381 483 373 509T358 563T345 613Q339 592 331 566T315 514T298 465L239 296ZM449 771Q422 771 400 780T360 802T325 824T292 834Q270 834 258 818T243 781H178Q180 822 196 855T240
909T304 929Q331 929 352 920T392 898T427 876T460 866Q482 866 494 882T509 919H574Q572 879 556 845T512 791T449 771Z" />
<glyph unicode="&#xc4;" glyph-name="Adieresis" horiz-adv-x="753" d="M4 0V53H16Q34 53 48 59T73 80T96 126L313 714H450L659 125Q669 97 680 82T705 60T735 53H753V0H423V53H462Q477 53 491 62T505 92Q505 100 504 108T500 123T496 135L461 235H218L189 149Q187
141 184 131T179 111T177 92Q177 73 191 63T222 53H264V0H4ZM239 296H441L388 460Q381 483 373 509T358 563T345 613Q339 592 331 566T315 514T298 465L239 296ZM478 791Q454 791 436 805T418 853Q418 888 436 901T478 915Q501 915 519 902T537 853Q537 819 519
805T478 791ZM272 791Q249 791 231 805T213 853Q213 888 231 901T272 915Q295 915 313 902T332 853Q332 819 314 805T272 791Z" />
<glyph unicode="&#xc5;" glyph-name="Aring" horiz-adv-x="753" d="M4 0V53H16Q34 53 48 59T73 80T96 126L301 682Q282 696 271 717T260 768Q260 821 295 849T380 877Q430 877 465 849T500 768Q500 740 490 719T461 683L659 125Q674 83 692 68T735 53H753V0H423V53H462Q477
53 491 62T505 92Q505 104 502 115T496 135L461 235H218L189 149Q187 141 184 131T179 111T177 92Q177 73 191 63T222 53H264V0H4ZM239 296H441L388 460Q381 483 373 509T358 563T345 613Q340 592 332 567T315 515T298 465L239 296ZM380 714Q404 714 421 726T439
768Q439 797 422 809T380 822Q356 822 339 810T321 768Q321 740 337 728T380 714Z" />
<glyph unicode="&#xc6;" glyph-name="AE" horiz-adv-x="993" d="M0 0V53H12Q30 53 44 61T73 86T101 131L382 656L316 661V714H923L927 530H857L852 577Q850 602 843 618T822 644T788 653H620V403H857V343H620V61H820Q840 61 853 71T873 98T884 137L892 184H961L954
0H368V53H410Q429 53 440 60T456 82T461 113V229H231L189 145Q181 129 177 115T173 92Q173 72 188 63T233 53H250V0H0ZM263 289H461V653H451L263 289Z" />
<glyph unicode="&#xc7;" glyph-name="Ccedilla" horiz-adv-x="668" d="M401 -10Q285 -10 208 36T93 164T55 358Q55 466 94 548T210 677T400 724Q477 724 527 709T603 667T628 608Q628 571 596 546T503 521Q503 554 493 586T459 639T393 660Q330 660 293 625T239
522T223 358Q223 262 242 198T306 102T425 70Q474 70 509 84T568 121T610 165Q618 159 622 147T627 122Q627 101 616 78T578 35T509 3T401 -10ZM361 -240Q351 -240 335 -239T303 -235T274 -229V-168Q292 -172 310 -174T342 -176Q371 -176 387 -166T403 -130Q403
-101 382 -91T328 -79L349 9H406L396 -34Q429 -36 453 -48T490 -79T503 -126Q503 -179 464 -209T361 -240Z" />
<glyph unicode="&#xc8;" glyph-name="Egrave" horiz-adv-x="653" d="M28 0V53H70Q84 53 95 57T114 74T121 113V596Q121 625 115 638T97 656T70 661H28V714H583L587 530H517L512 577Q510 602 503 618T482 644T448 653H280V403H517V343H280V61H480Q500 61 513 71T533
98T544 137L552 184H621L614 0H28ZM336 771Q312 785 284 804T229 846T181 888T150 921V931H307Q318 909 335 882T371 829T404 784V771H336Z" />
<glyph unicode="&#xc9;" glyph-name="Eacute" horiz-adv-x="653" d="M28 0V53H70Q84 53 95 57T114 74T121 113V596Q121 625 115 638T97 656T70 661H28V714H583L587 530H517L512 577Q510 602 503 618T482 644T448 653H280V403H517V343H280V61H480Q500 61 513 71T533
98T544 137L552 184H621L614 0H28ZM255 784Q270 803 288 829T324 882T352 931H509V921Q500 908 479 888T430 846T375 805T323 771H255V784Z" />
<glyph unicode="&#xca;" glyph-name="Ecircumflex" horiz-adv-x="653" d="M28 0V53H70Q84 53 95 57T114 74T121 113V596Q121 625 115 638T97 656T70 661H28V714H583L587 530H517L512 577Q510 602 503 618T482 644T448 653H280V403H517V343H280V61H480Q500 61 513
71T533 98T544 137L552 184H621L614 0H28ZM141 784Q157 803 178 829T220 882T251 931H386Q397 909 417 882T459 829T496 784V771H427Q413 782 393 798T353 831T318 861Q303 848 283 831T244 798T210 771H141V784Z" />
<glyph unicode="&#xcb;" glyph-name="Edieresis" horiz-adv-x="653" d="M28 0V53H70Q84 53 95 57T114 74T121 113V596Q121 625 115 638T97 656T70 661H28V714H583L587 530H517L512 577Q510 602 503 618T482 644T448 653H280V403H517V343H280V61H480Q500 61 513
71T533 98T544 137L552 184H621L614 0H28ZM439 791Q415 791 397 805T379 853Q379 888 397 901T439 915Q462 915 480 902T498 853Q498 819 480 805T439 791ZM233 791Q210 791 192 805T174 853Q174 888 192 901T233 915Q256 915 274 902T293 853Q293 819 275 805T233
791Z" />
<glyph unicode="&#xcc;" glyph-name="Igrave" horiz-adv-x="401" d="M28 0V53H70Q85 53 96 57T114 76T121 118V596Q121 625 115 638T97 656T70 661H28V714H373V661H331Q317 661 305 657T287 639T280 596V118Q280 90 286 76T305 58T331 53H373V0H28ZM209 771Q185
785 157 804T102 846T54 888T23 921V931H180Q191 909 208 882T244 829T277 784V771H209Z" />
<glyph unicode="&#xcd;" glyph-name="Iacute" horiz-adv-x="401" d="M28 0V53H70Q85 53 96 57T114 76T121 118V596Q121 625 115 638T97 656T70 661H28V714H373V661H331Q317 661 305 657T287 639T280 596V118Q280 90 286 76T305 58T331 53H373V0H28ZM123 784Q138
803 156 829T192 882T220 931H377V921Q368 908 347 888T298 846T243 805T191 771H123V784Z" />
<glyph unicode="&#xce;" glyph-name="Icircumflex" horiz-adv-x="401" d="M28 0V53H70Q85 53 96 57T114 76T121 118V596Q121 625 115 638T97 656T70 661H28V714H373V661H331Q317 661 305 657T287 639T280 596V118Q280 90 286 76T305 58T331 53H373V0H28ZM23 784Q39
803 60 829T102 882T133 931H268Q279 909 299 882T341 829T378 784V771H309Q295 782 275 798T235 831T200 861Q185 848 165 831T126 798T92 771H23V784Z" />
<glyph unicode="&#xcf;" glyph-name="Idieresis" horiz-adv-x="401" d="M28 0V53H70Q85 53 96 57T114 76T121 118V596Q121 625 115 638T97 656T70 661H28V714H373V661H331Q317 661 305 657T287 639T280 596V118Q280 90 286 76T305 58T331 53H373V0H28ZM303 791Q279
791 261 805T243 853Q243 888 261 901T303 915Q326 915 344 902T362 853Q362 819 344 805T303 791ZM97 791Q74 791 56 805T38 853Q38 888 56 901T97 915Q120 915 138 902T157 853Q157 819 139 805T97 791Z" />
<glyph unicode="&#xd0;" glyph-name="Eth" horiz-adv-x="767" d="M28 0V53H70Q85 53 96 57T114 76T121 118V343H38V404H121V600Q121 627 114 640T96 657T70 661H28V714H358Q469 714 548 676T669 561T712 370Q712 261 672 178T554 47T358 0H28ZM335 62Q404 62 450
99T519 205T543 371Q543 466 520 528T450 622T336 653H279V404H404V343H279V62H335Z" />
<glyph unicode="&#xd1;" glyph-name="Ntilde" horiz-adv-x="788" d="M28 0V53H70Q84 53 95 57T114 76T121 118V600Q121 627 114 640T96 657T70 661H28V714H250L603 215V600Q603 627 596 640T578 657T552 661H510V714H771V661H729Q715 661 704 657T685 639T678
596V0H586L196 551V118Q196 90 203 76T221 58T247 53H289V0H28ZM476 771Q449 771 427 780T387 802T352 824T319 834Q297 834 285 818T270 781H205Q207 822 223 855T267 909T331 929Q358 929 379 920T419 898T454 876T487 866Q509 866 521 882T536 919H601Q599 879
583 845T539 791T476 771Z" />
<glyph unicode="&#xd2;" glyph-name="Ograve" horiz-adv-x="787" d="M394 -10Q280 -10 205 36T93 165T55 359Q55 470 92 552T205 679T395 725Q503 725 578 680T693 552T732 358Q732 247 693 165T578 36T394 -10ZM394 55Q457 55 494 91T547 195T564 358Q564 454
548 521T494 624T395 660Q301 660 262 581T223 358Q223 263 240 195T294 91T394 55ZM397 771Q373 785 345 804T290 846T242 888T211 921V931H368Q379 909 396 882T432 829T465 784V771H397Z" />
<glyph unicode="&#xd3;" glyph-name="Oacute" horiz-adv-x="787" d="M394 -10Q280 -10 205 36T93 165T55 359Q55 470 92 552T205 679T395 725Q503 725 578 680T693 552T732 358Q732 247 693 165T578 36T394 -10ZM394 55Q457 55 494 91T547 195T564 358Q564 454
548 521T494 624T395 660Q301 660 262 581T223 358Q223 263 240 195T294 91T394 55ZM325 784Q340 803 358 829T394 882T422 931H579V921Q570 908 549 888T500 846T445 805T393 771H325V784Z" />
<glyph unicode="&#xd4;" glyph-name="Ocircumflex" horiz-adv-x="787" d="M394 -10Q280 -10 205 36T93 165T55 359Q55 470 92 552T205 679T395 725Q503 725 578 680T693 552T732 358Q732 247 693 165T578 36T394 -10ZM394 55Q457 55 494 91T547 195T564 358Q564
454 548 521T494 624T395 660Q301 660 262 581T223 358Q223 263 240 195T294 91T394 55ZM215 784Q231 803 252 829T294 882T325 931H460Q471 909 491 882T533 829T570 784V771H501Q487 782 467 798T427 831T392 861Q377 848 357 831T318 798T284 771H215V784Z"
/>
<glyph unicode="&#xd5;" glyph-name="Otilde" horiz-adv-x="787" d="M394 -10Q280 -10 205 36T93 165T55 359Q55 470 92 552T205 679T395 725Q503 725 578 680T693 552T732 358Q732 247 693 165T578 36T394 -10ZM394 55Q457 55 494 91T547 195T564 358Q564 454
548 521T494 624T395 660Q301 660 262 581T223 358Q223 263 240 195T294 91T394 55ZM465 771Q438 771 416 780T376 802T341 824T308 834Q286 834 274 818T259 781H194Q196 822 212 855T256 909T320 929Q347 929 368 920T408 898T443 876T476 866Q498 866 510 882T525
919H590Q588 879 572 845T528 791T465 771Z" />
<glyph unicode="&#xd6;" glyph-name="Odieresis" horiz-adv-x="787" d="M394 -10Q280 -10 205 36T93 165T55 359Q55 470 92 552T205 679T395 725Q503 725 578 680T693 552T732 358Q732 247 693 165T578 36T394 -10ZM394 55Q457 55 494 91T547 195T564 358Q564
454 548 521T494 624T395 660Q301 660 262 581T223 358Q223 263 240 195T294 91T394 55ZM491 791Q467 791 449 805T431 853Q431 888 449 901T491 915Q514 915 532 902T550 853Q550 819 532 805T491 791ZM285 791Q262 791 244 805T226 853Q226 888 244 901T285 915Q308
915 326 902T345 853Q345 819 327 805T285 791Z" />
<glyph unicode="&#xd7;" glyph-name="multiply" horiz-adv-x="559" d="M132 160L81 211L228 359L81 506L132 556L279 409L426 557L477 506L329 358L477 210L427 160L279 308L132 160Z" />
<glyph unicode="&#xd8;" glyph-name="Oslash" horiz-adv-x="787" d="M191 45Q123 92 89 172T55 359Q55 470 92 552T205 679T395 725Q436 725 473 718T542 697L573 755H643L596 668Q662 622 697 542T732 358Q732 247 693 165T578 36T394 -10Q351 -10 315 -4T246
16L216 -40H145L191 45ZM394 55Q457 55 494 91T547 195T564 358Q564 420 557 470T536 557L289 96Q309 76 334 66T394 55ZM499 618Q480 638 454 649T395 660Q301 660 262 581T223 358Q223 296 230 246T252 158L499 618Z" />
<glyph unicode="&#xd9;" glyph-name="Ugrave" horiz-adv-x="747" d="M387 -10Q300 -10 238 13T143 86T110 218V600Q110 627 103 640T85 657T59 661H16V714H361V661H319Q305 661 294 657T275 639T268 596V210Q268 126 308 94T417 61Q462 61 494 76T544 124T562
208V600Q562 627 555 640T537 657T511 661H469V714H731V661H688Q674 661 663 657T644 639T637 596V206Q637 139 611 91T530 16T387 -10ZM397 771Q373 785 345 804T290 846T242 888T211 921V931H368Q379 909 396 882T432 829T465 784V771H397Z" />
<glyph unicode="&#xda;" glyph-name="Uacute" horiz-adv-x="747" d="M387 -10Q300 -10 238 13T143 86T110 218V600Q110 627 103 640T85 657T59 661H16V714H361V661H319Q305 661 294 657T275 639T268 596V210Q268 126 308 94T417 61Q462 61 494 76T544 124T562
208V600Q562 627 555 640T537 657T511 661H469V714H731V661H688Q674 661 663 657T644 639T637 596V206Q637 139 611 91T530 16T387 -10ZM314 784Q329 803 347 829T383 882T411 931H568V921Q559 908 538 888T489 846T434 805T382 771H314V784Z" />
<glyph unicode="&#xdb;" glyph-name="Ucircumflex" horiz-adv-x="747" d="M387 -10Q300 -10 238 13T143 86T110 218V600Q110 627 103 640T85 657T59 661H16V714H361V661H319Q305 661 294 657T275 639T268 596V210Q268 126 308 94T417 61Q462 61 494 76T544 124T562
208V600Q562 627 555 640T537 657T511 661H469V714H731V661H688Q674 661 663 657T644 639T637 596V206Q637 139 611 91T530 16T387 -10ZM222 784Q238 803 259 829T301 882T332 931H467Q478 909 498 882T540 829T577 784V771H508Q494 782 474 798T434 831T399 861Q384
848 364 831T325 798T291 771H222V784Z" />
<glyph unicode="&#xdc;" glyph-name="Udieresis" horiz-adv-x="747" d="M387 -10Q300 -10 238 13T143 86T110 218V600Q110 627 103 640T85 657T59 661H16V714H361V661H319Q305 661 294 657T275 639T268 596V210Q268 126 308 94T417 61Q462 61 494 76T544 124T562
208V600Q562 627 555 640T537 657T511 661H469V714H731V661H688Q674 661 663 657T644 639T637 596V206Q637 139 611 91T530 16T387 -10ZM506 791Q482 791 464 805T446 853Q446 888 464 901T506 915Q529 915 547 902T565 853Q565 819 547 805T506 791ZM300 791Q277
791 259 805T241 853Q241 888 259 901T300 915Q323 915 341 902T360 853Q360 819 342 805T300 791Z" />
<glyph unicode="&#xdd;" glyph-name="Yacute" horiz-adv-x="693" d="M164 0V53H211Q227 53 240 56T261 73T269 114V253L84 608Q74 628 65 639T45 656T13 661H0V714H335V661H318Q288 661 273 649T258 616Q258 603 262 589T273 561L347 414Q363 383 373 358T391
310Q402 336 415 367T445 432L503 552Q514 574 517 589T520 612Q520 638 504 649T454 661H431V714H693V661H674Q657 661 646 655T625 631T598 583L428 252V115Q428 86 435 73T456 57T484 53H533V0H164ZM294 784Q309 803 327 829T363 882T391 931H548V921Q539 908
518 888T469 846T414 805T362 771H294V784Z" />
<glyph unicode="&#xde;" glyph-name="Thorn" horiz-adv-x="638" d="M28 0V53H70Q85 53 96 57T114 76T121 118V596Q121 625 115 638T97 656T70 661H28V714H373V661H332Q318 661 306 657T287 641T279 601V583H335Q474 581 541 525T608 371Q608 311 580 259T486 175T313
142H279V113Q280 87 287 74T306 57T332 53H373V0H28ZM303 200Q353 200 383 217T426 270T440 367Q440 447 413 485T318 524H279V200H303Z" />
<glyph unicode="&#xdf;" glyph-name="germandbls" horiz-adv-x="706" d="M469 -10Q407 -10 366 5T305 47T285 107Q285 135 298 149T330 168T367 173Q375 135 389 107T424 64T471 49Q500 49 519 66T538 116Q538 140 529 159T499 195T437 231Q389 254 362 281T323
341T311 407Q311 453 332 482T389 527T473 546Q473 607 460 644T422 697T363 714Q329 714 304 699T265 653T251 573V0H6V53H49Q63 53 74 57T93 76T100 118V467H20V536H100V546Q100 630 134 679T228 749T360 770Q453 770 508 738T589 644T615 491H559Q527 491 500
486T458 466T442 424Q442 401 453 385T488 354T553 320Q595 301 619 275T655 219T666 158Q666 73 614 32T469 -10Z" />
<glyph unicode="&#xe0;" glyph-name="agrave" horiz-adv-x="599" d="M202 -10Q158 -10 123 7T66 61T45 153Q45 234 101 273T269 316L351 319V374Q351 408 347 433T330 473T289 488Q264 488 249 474T228 436T222 380Q155 380 121 395T87 447Q87 484 115 506T190
538T293 549Q398 549 450 511T503 379V124Q503 97 508 82T527 60T563 53H567V0H381L360 69H351Q329 42 310 25T265 -1T202 -10ZM257 63Q286 63 307 78T339 123T351 191V266L306 263Q266 261 243 248T210 210T200 149Q200 121 206 102T225 73T257 63ZM301 606Q277
620 249 639T194 681T146 723T115 756V766H272Q283 744 300 717T336 664T369 619V606H301Z" />
<glyph unicode="&#xe1;" glyph-name="aacute" horiz-adv-x="599" d="M202 -10Q158 -10 123 7T66 61T45 153Q45 234 101 273T269 316L351 319V374Q351 408 347 433T330 473T289 488Q264 488 249 474T228 436T222 380Q155 380 121 395T87 447Q87 484 115 506T190
538T293 549Q398 549 450 511T503 379V124Q503 97 508 82T527 60T563 53H567V0H381L360 69H351Q329 42 310 25T265 -1T202 -10ZM257 63Q286 63 307 78T339 123T351 191V266L306 263Q266 261 243 248T210 210T200 149Q200 121 206 102T225 73T257 63ZM228 619Q243
638 261 664T297 717T325 766H482V756Q473 743 452 723T403 681T348 640T296 606H228V619Z" />
<glyph unicode="&#xe2;" glyph-name="acircumflex" horiz-adv-x="599" d="M202 -10Q158 -10 123 7T66 61T45 153Q45 234 101 273T269 316L351 319V374Q351 408 347 433T330 473T289 488Q264 488 249 474T228 436T222 380Q155 380 121 395T87 447Q87 484 115 506T190
538T293 549Q398 549 450 511T503 379V124Q503 97 508 82T527 60T563 53H567V0H381L360 69H351Q329 42 310 25T265 -1T202 -10ZM257 63Q286 63 307 78T339 123T351 191V266L306 263Q266 261 243 248T210 210T200 149Q200 121 206 102T225 73T257 63ZM125 619Q141
638 162 664T204 717T235 766H370Q381 744 401 717T443 664T480 619V606H411Q397 617 377 633T337 666T302 696Q287 683 267 666T228 633T194 606H125V619Z" />
<glyph unicode="&#xe3;" glyph-name="atilde" horiz-adv-x="599" d="M202 -10Q158 -10 123 7T66 61T45 153Q45 234 101 273T269 316L351 319V374Q351 408 347 433T330 473T289 488Q264 488 249 474T228 436T222 380Q155 380 121 395T87 447Q87 484 115 506T190
538T293 549Q398 549 450 511T503 379V124Q503 97 508 82T527 60T563 53H567V0H381L360 69H351Q329 42 310 25T265 -1T202 -10ZM257 63Q286 63 307 78T339 123T351 191V266L306 263Q266 261 243 248T210 210T200 149Q200 121 206 102T225 73T257 63ZM374 606Q347
606 325 615T285 637T250 659T217 669Q195 669 183 653T168 616H103Q105 657 121 690T165 744T229 764Q256 764 277 755T317 733T352 711T385 701Q407 701 419 717T434 754H499Q497 714 481 680T437 626T374 606Z" />
<glyph unicode="&#xe4;" glyph-name="adieresis" horiz-adv-x="599" d="M202 -10Q158 -10 123 7T66 61T45 153Q45 234 101 273T269 316L351 319V374Q351 408 347 433T330 473T289 488Q264 488 249 474T228 436T222 380Q155 380 121 395T87 447Q87 484 115 506T190
538T293 549Q398 549 450 511T503 379V124Q503 97 508 82T527 60T563 53H567V0H381L360 69H351Q329 42 310 25T265 -1T202 -10ZM257 63Q286 63 307 78T339 123T351 191V266L306 263Q266 261 243 248T210 210T200 149Q200 121 206 102T225 73T257 63ZM401 626Q377
626 359 640T341 688Q341 723 359 736T401 750Q424 750 442 737T460 688Q460 654 442 640T401 626ZM195 626Q172 626 154 640T136 688Q136 723 154 736T195 750Q218 750 236 737T255 688Q255 654 237 640T195 626Z" />
<glyph unicode="&#xe5;" glyph-name="aring" horiz-adv-x="599" d="M202 -10Q158 -10 123 7T66 61T45 153Q45 234 101 273T269 316L351 319V374Q351 408 347 433T330 473T289 488Q264 488 249 474T228 436T222 380Q155 380 121 395T87 447Q87 484 115 506T190
538T293 549Q398 549 450 511T503 379V124Q503 97 508 82T527 60T563 53H567V0H381L360 69H351Q329 42 310 25T265 -1T202 -10ZM257 63Q286 63 307 78T339 123T351 191V266L306 263Q266 261 243 248T210 210T200 149Q200 121 206 102T225 73T257 63ZM302 596Q252
596 217 624T182 705Q182 758 217 786T302 814Q352 814 387 786T422 705Q422 652 387 624T302 596ZM302 651Q326 651 343 663T361 705Q361 734 344 746T302 759Q278 759 261 747T243 705Q243 676 260 664T302 651Z" />
<glyph unicode="&#xe6;" glyph-name="ae" horiz-adv-x="875" d="M202 -10Q158 -10 123 7T66 61T45 153Q45 234 101 273T269 316L351 319V374Q351 408 347 433T330 473T289 488Q264 488 249 474T228 436T222 380Q155 380 121 395T87 447Q87 484 115 506T190 538T293
549Q329 549 358 543T411 525T452 492Q481 520 518 534T599 549Q672 549 724 522T804 442T833 308V257H505Q507 190 523 148T568 85T639 65Q691 65 727 88T780 146Q794 139 800 127T807 97Q807 69 787 45T723 5T612 -10Q539 -10 485 15T399 86Q377 53 347 32T281
0T202 -10ZM257 63Q286 63 307 78T339 123T351 191V266L306 263Q266 261 243 248T210 210T200 149Q200 121 206 102T225 73T257 63ZM680 321Q680 399 661 441T601 484Q560 484 535 443T507 321H680Z" />
<glyph unicode="&#xe7;" glyph-name="ccedilla" horiz-adv-x="527" d="M295 -10Q222 -10 166 16T79 103T47 266Q47 374 79 435T167 523T292 549Q357 549 401 535T467 498T490 444Q490 423 480 404T441 372T361 359Q361 394 355 423T335 470T296 488Q267 488 246
469T213 401T201 267Q201 200 213 155T252 88T320 65Q355 65 383 75T433 104T465 146Q477 139 483 127T489 100Q489 75 469 50T406 7T295 -10ZM262 -240Q246 -240 220 -237T175 -229V-168Q193 -172 211 -174T243 -176Q272 -176 288 -166T304 -130Q304 -101 283
-91T229 -79L250 9H307L297 -34Q330 -36 354 -48T391 -79T404 -126Q404 -179 365 -209T262 -240Z" />
<glyph unicode="&#xe8;" glyph-name="egrave" horiz-adv-x="571" d="M306 -10Q179 -10 113 62T47 265Q47 406 112 477T295 549Q404 549 466 488T529 308V257H201Q204 157 238 111T335 65Q387 65 423 88T476 146Q490 139 496 127T503 97Q503 69 482 45T418 5T306
-10ZM376 321Q376 398 358 441T297 484Q255 484 230 443T203 321H376ZM313 606Q289 620 261 639T206 681T158 723T127 756V766H284Q295 744 312 717T348 664T381 619V606H313Z" />
<glyph unicode="&#xe9;" glyph-name="eacute" horiz-adv-x="571" d="M306 -10Q179 -10 113 62T47 265Q47 406 112 477T295 549Q404 549 466 488T529 308V257H201Q204 157 238 111T335 65Q387 65 423 88T476 146Q490 139 496 127T503 97Q503 69 482 45T418 5T306
-10ZM376 321Q376 398 358 441T297 484Q255 484 230 443T203 321H376ZM231 619Q246 638 264 664T300 717T328 766H485V756Q476 743 455 723T406 681T351 640T299 606H231V619Z" />
<glyph unicode="&#xea;" glyph-name="ecircumflex" horiz-adv-x="571" d="M306 -10Q179 -10 113 62T47 265Q47 406 112 477T295 549Q404 549 466 488T529 308V257H201Q204 157 238 111T335 65Q387 65 423 88T476 146Q490 139 496 127T503 97Q503 69 482 45T418
5T306 -10ZM376 321Q376 398 358 441T297 484Q255 484 230 443T203 321H376ZM124 619Q140 638 161 664T203 717T234 766H369Q380 744 400 717T442 664T479 619V606H410Q396 617 376 633T336 666T301 696Q286 683 266 666T227 633T193 606H124V619Z" />
<glyph unicode="&#xeb;" glyph-name="edieresis" horiz-adv-x="571" d="M306 -10Q179 -10 113 62T47 265Q47 406 112 477T295 549Q404 549 466 488T529 308V257H201Q204 157 238 111T335 65Q387 65 423 88T476 146Q490 139 496 127T503 97Q503 69 482 45T418 5T306
-10ZM376 321Q376 398 358 441T297 484Q255 484 230 443T203 321H376ZM402 626Q378 626 360 640T342 688Q342 723 360 736T402 750Q425 750 443 737T461 688Q461 654 443 640T402 626ZM196 626Q173 626 155 640T137 688Q137 723 155 736T196 750Q219 750 237 737T256
688Q256 654 238 640T196 626Z" />
<glyph unicode="&#xec;" glyph-name="igrave" horiz-adv-x="352" d="M17 0V53H29Q44 53 60 57T88 76T100 118V422Q100 449 88 462T60 479T29 483H17V536H252V118Q252 90 263 76T292 58T323 53H335V0H17ZM436 606Q412 620 384 639T329 681T281 723T250 756V766H407Q418
744 435 717T471 664T504 619V606H436Z" />
<glyph unicode="&#xed;" glyph-name="iacute" horiz-adv-x="352" d="M17 0V53H29Q44 53 60 57T88 76T100 118V422Q100 449 88 462T60 479T29 483H17V536H252V118Q252 90 263 76T292 58T323 53H335V0H17ZM98 619Q113 638 131 664T167 717T195 766H352V756Q343 743
322 723T273 681T218 640T166 606H98V619Z" />
<glyph unicode="&#xee;" glyph-name="icircumflex" horiz-adv-x="352" d="M17 0V53H29Q44 53 60 57T88 76T100 118V422Q100 449 88 462T60 479T29 483H17V536H252V118Q252 90 263 76T292 58T323 53H335V0H17ZM241 619Q257 638 278 664T320 717T351 766H486Q497
744 517 717T559 664T596 619V606H527Q513 617 493 633T453 666T418 696Q403 683 383 666T344 633T310 606H241V619Z" />
<glyph unicode="&#xef;" glyph-name="idieresis" horiz-adv-x="352" d="M17 0V53H29Q44 53 60 57T88 76T100 118V422Q100 449 88 462T60 479T29 483H17V536H252V118Q252 90 263 76T292 58T323 53H335V0H17ZM264 626Q240 626 222 640T204 688Q204 723 222 736T264
750Q287 750 305 737T323 688Q323 654 305 640T264 626ZM58 626Q35 626 17 640T-1 688Q-1 723 17 736T58 750Q81 750 99 737T118 688Q118 654 100 640T58 626Z" />
<glyph unicode="&#xf0;" glyph-name="eth" horiz-adv-x="613" d="M304 -10Q225 -10 167 19T78 107T47 255Q47 388 109 453T288 519Q310 519 330 516T367 506T397 492Q387 524 369 556T312 619L171 547V612L260 658Q235 674 207 683T142 698V761Q167 759 203 750T276
728T338 698L464 762V696L394 660Q471 601 518 506T566 291Q566 190 536 123T448 23T304 -10ZM307 53Q364 53 388 104T412 254Q412 322 402 366T368 433T306 455Q268 455 245 434T212 368T202 254Q202 155 225 104T307 53Z" />
<glyph unicode="&#xf1;" glyph-name="ntilde" horiz-adv-x="667" d="M20 0V53H22Q45 53 62 58T90 77T100 122V418Q100 446 91 460T66 478T28 483H25V536H235L248 465H253Q273 503 296 520T347 543T406 549Q483 549 527 503T571 356V124Q571 93 578 78T601 58T638
53H641V0H419V329Q419 394 401 429T339 464Q306 464 287 443T260 386T252 309V118Q252 90 261 76T286 58T324 53H327V0H20ZM400 606Q373 606 351 615T311 637T276 659T243 669Q221 669 209 653T194 616H129Q131 657 147 690T191 744T255 764Q282 764 303 755T343
733T378 711T411 701Q433 701 445 717T460 754H525Q523 714 507 680T463 626T400 606Z" />
<glyph unicode="&#xf2;" glyph-name="ograve" horiz-adv-x="613" d="M305 -10Q185 -10 116 59T47 270Q47 411 113 480T308 549Q428 549 497 480T566 270Q566 129 500 60T305 -10ZM307 53Q346 53 368 77T401 150T411 270Q411 377 388 431T306 485Q248 485 225 432T202
270Q202 164 225 109T307 53ZM301 606Q277 620 249 639T194 681T146 723T115 756V766H272Q283 744 300 717T336 664T369 619V606H301Z" />
<glyph unicode="&#xf3;" glyph-name="oacute" horiz-adv-x="613" d="M305 -10Q185 -10 116 59T47 270Q47 411 113 480T308 549Q428 549 497 480T566 270Q566 129 500 60T305 -10ZM307 53Q346 53 368 77T401 150T411 270Q411 377 388 431T306 485Q248 485 225 432T202
270Q202 164 225 109T307 53ZM246 619Q261 638 279 664T315 717T343 766H500V756Q491 743 470 723T421 681T366 640T314 606H246V619Z" />
<glyph unicode="&#xf4;" glyph-name="ocircumflex" horiz-adv-x="613" d="M305 -10Q185 -10 116 59T47 270Q47 411 113 480T308 549Q428 549 497 480T566 270Q566 129 500 60T305 -10ZM307 53Q346 53 368 77T401 150T411 270Q411 377 388 431T306 485Q248 485
225 432T202 270Q202 164 225 109T307 53ZM128 619Q144 638 165 664T207 717T238 766H373Q384 744 404 717T446 664T483 619V606H414Q400 617 380 633T340 666T305 696Q290 683 270 666T231 633T197 606H128V619Z" />
<glyph unicode="&#xf5;" glyph-name="otilde" horiz-adv-x="613" d="M305 -10Q185 -10 116 59T47 270Q47 411 113 480T308 549Q428 549 497 480T566 270Q566 129 500 60T305 -10ZM307 53Q346 53 368 77T401 150T411 270Q411 377 388 431T306 485Q248 485 225 432T202
270Q202 164 225 109T307 53ZM377 606Q350 606 328 615T288 637T253 659T220 669Q198 669 186 653T171 616H106Q108 657 124 690T168 744T232 764Q259 764 280 755T320 733T355 711T388 701Q410 701 422 717T437 754H502Q500 714 484 680T440 626T377 606Z" />
<glyph unicode="&#xf6;" glyph-name="odieresis" horiz-adv-x="613" d="M305 -10Q185 -10 116 59T47 270Q47 411 113 480T308 549Q428 549 497 480T566 270Q566 129 500 60T305 -10ZM307 53Q346 53 368 77T401 150T411 270Q411 377 388 431T306 485Q248 485 225
432T202 270Q202 164 225 109T307 53ZM408 626Q384 626 366 640T348 688Q348 723 366 736T408 750Q431 750 449 737T467 688Q467 654 449 640T408 626ZM202 626Q179 626 161 640T143 688Q143 723 161 736T202 750Q225 750 243 737T262 688Q262 654 244 640T202
626Z" />
<glyph unicode="&#xf7;" glyph-name="divide" horiz-adv-x="559" d="M65 322V393H494V322H65ZM280 107Q256 107 240 120T224 168Q224 203 240 216T280 229Q303 229 319 216T336 168Q336 134 320 121T280 107ZM280 486Q256 486 240 499T224 547Q224 582 240 595T280
608Q303 608 319 595T336 547Q336 513 320 500T280 486Z" />
<glyph unicode="&#xf8;" glyph-name="oslash" horiz-adv-x="613" d="M134 42Q92 77 70 134T47 270Q47 411 113 480T308 549Q380 549 432 525L464 576H534L483 492Q523 458 544 403T566 270Q566 129 500 60T305 -10Q271 -10 242 -5T187 11L155 -40H84L134 42ZM307
53Q346 53 368 77T401 150T411 270Q411 297 410 321T405 366L235 90Q248 71 265 62T307 53ZM381 443Q368 464 350 474T306 485Q248 485 225 431T202 270Q202 239 203 213T209 164L381 443Z" />
<glyph unicode="&#xf9;" glyph-name="ugrave" horiz-adv-x="667" d="M258 -10Q180 -10 138 38T96 188V412Q96 441 89 456T67 477T28 483H26V536H248V216Q248 173 254 142T278 93T324 75Q356 75 376 93T405 146T415 227V419Q415 448 405 461T379 479T343 483H340V536H567V116Q567
87 575 74T599 57T634 53H642V0H443L421 71H416Q386 19 346 5T258 -10ZM309 606Q285 620 257 639T202 681T154 723T123 756V766H280Q291 744 308 717T344 664T377 619V606H309Z" />
<glyph unicode="&#xfa;" glyph-name="uacute" horiz-adv-x="667" d="M258 -10Q180 -10 138 38T96 188V412Q96 441 89 456T67 477T28 483H26V536H248V216Q248 173 254 142T278 93T324 75Q356 75 376 93T405 146T415 227V419Q415 448 405 461T379 479T343 483H340V536H567V116Q567
87 575 74T599 57T634 53H642V0H443L421 71H416Q386 19 346 5T258 -10ZM257 619Q272 638 290 664T326 717T354 766H511V756Q502 743 481 723T432 681T377 640T325 606H257V619Z" />
<glyph unicode="&#xfb;" glyph-name="ucircumflex" horiz-adv-x="667" d="M258 -10Q180 -10 138 38T96 188V412Q96 441 89 456T67 477T28 483H26V536H248V216Q248 173 254 142T278 93T324 75Q356 75 376 93T405 146T415 227V419Q415 448 405 461T379 479T343 483H340V536H567V116Q567
87 575 74T599 57T634 53H642V0H443L421 71H416Q386 19 346 5T258 -10ZM144 619Q160 638 181 664T223 717T254 766H389Q400 744 420 717T462 664T499 619V606H430Q416 617 396 633T356 666T321 696Q306 683 286 666T247 633T213 606H144V619Z" />
<glyph unicode="&#xfc;" glyph-name="udieresis" horiz-adv-x="667" d="M258 -10Q180 -10 138 38T96 188V412Q96 441 89 456T67 477T28 483H26V536H248V216Q248 173 254 142T278 93T324 75Q356 75 376 93T405 146T415 227V419Q415 448 405 461T379 479T343 483H340V536H567V116Q567
87 575 74T599 57T634 53H642V0H443L421 71H416Q386 19 346 5T258 -10ZM427 626Q403 626 385 640T367 688Q367 723 385 736T427 750Q450 750 468 737T486 688Q486 654 468 640T427 626ZM221 626Q198 626 180 640T162 688Q162 723 180 736T221 750Q244 750 262 737T281
688Q281 654 263 640T221 626Z" />
<glyph unicode="&#xfd;" glyph-name="yacute" horiz-adv-x="579" d="M27 -182Q79 -182 116 -170T178 -134T219 -78T248 -5L68 435Q61 453 51 461T30 473T4 477H0V536H285V483H282Q254 483 238 475T222 446Q222 438 225 427T232 407L301 224Q311 199 316 180T325
147T329 118Q331 139 339 165T351 198L417 394Q421 404 424 419T427 443Q427 465 409 473T358 483H354V536H579V483H575Q557 483 544 476T520 453T499 410L348 0Q322 -73 299 -119T244 -192T166 -229T44 -240H27V-182ZM226 619Q241 638 259 664T295 717T323 766H480V756Q471
743 450 723T401 681T346 640T294 606H226V619Z" />
<glyph unicode="&#xfe;" glyph-name="thorn" horiz-adv-x="645" d="M13 -240V-187H25Q40 -187 56 -183T84 -164T96 -122V637Q96 668 87 682T63 702T29 707H22V760H248V576Q248 558 245 530T239 480T236 458H240Q262 497 298 521T393 546Q493 546 545 479T598 266Q598
121 547 55T397 -12Q340 -12 305 9T247 68H240Q240 68 241 56T244 24T247 -16T248 -53V-122Q248 -150 259 -164T288 -182T319 -187H341V-240H13ZM350 62Q400 62 422 112T444 265Q444 365 423 418T351 471Q311 471 289 448T257 378T248 266Q248 197 257 152T288
84T350 62Z" />
<glyph unicode="&#xff;" glyph-name="ydieresis" horiz-adv-x="579" d="M27 -182Q79 -182 116 -170T178 -134T219 -78T248 -5L68 435Q61 453 51 461T30 473T4 477H0V536H285V483H282Q254 483 238 475T222 446Q222 438 225 427T232 407L301 224Q311 199 316 180T325
147T329 118Q331 139 339 165T351 198L417 394Q421 404 424 419T427 443Q427 465 409 473T358 483H354V536H579V483H575Q557 483 544 476T520 453T499 410L348 0Q322 -73 299 -119T244 -192T166 -229T44 -240H27V-182ZM403 626Q379 626 361 640T343 688Q343 723
361 736T403 750Q426 750 444 737T462 688Q462 654 444 640T403 626ZM197 626Q174 626 156 640T138 688Q138 723 156 736T197 750Q220 750 238 737T257 688Q257 654 239 640T197 626Z" />
<glyph unicode="&#x2013;" glyph-name="endash" horiz-adv-x="500" d="M-5 233V304H505V233H-5Z" />
<glyph unicode="&#x2014;" glyph-name="emdash" horiz-adv-x="1000" d="M-5 233V304H1005V233H-5Z" />
<glyph unicode="&#x2018;" glyph-name="quoteleft" horiz-adv-x="280" d="M148 408Q106 408 81 437T56 518Q56 582 97 635T235 714V662Q206 652 187 642T157 618T147 584Q147 570 158 563T183 547T209 523T220 477Q220 443 200 426T148 408Z" />
<glyph unicode="&#x2019;" glyph-name="quoteright" horiz-adv-x="280" d="M45 460Q74 471 93 481T123 505T133 538Q133 552 122 559T97 575T71 599T60 645Q60 679 80 696T132 714Q174 714 199 685T224 604Q224 540 184 487T45 408V460Z" />
<glyph unicode="&#x201a;" glyph-name="quotesinglbase" horiz-adv-x="294" d="M45 -102Q74 -91 93 -81T123 -57T133 -24Q133 -10 122 -3T97 13T71 37T60 83Q60 117 80 134T132 152Q174 152 199 123T224 42Q224 -22 184 -75T45 -154V-102Z" />
<glyph unicode="&#x201c;" glyph-name="quotedblleft" horiz-adv-x="489" d="M357 408Q315 408 290 437T265 518Q265 582 306 635T444 714V662Q415 652 396 642T366 618T356 584Q356 570 367 563T392 547T418 523T429 477Q429 443 409 426T357 408ZM148 408Q106
408 81 437T56 518Q56 582 97 635T235 714V662Q206 652 187 642T157 618T147 584Q147 570 158 563T183 547T209 523T220 477Q220 443 200 426T148 408Z" />
<glyph unicode="&#x201d;" glyph-name="quotedblright" horiz-adv-x="489" d="M254 460Q283 471 302 481T332 505T342 538Q342 552 331 559T306 575T280 599T269 645Q269 679 289 696T341 714Q383 714 408 685T433 604Q433 540 393 487T254 408V460ZM45 460Q74
471 93 481T123 505T133 538Q133 552 122 559T97 575T71 599T60 645Q60 679 80 696T132 714Q174 714 199 685T224 604Q224 540 184 487T45 408V460Z" />
<glyph unicode="&#x201e;" glyph-name="quotedblbase" horiz-adv-x="489" d="M254 -102Q283 -91 302 -81T332 -57T342 -24Q342 -10 331 -3T306 13T280 37T269 83Q269 117 289 134T341 152Q383 152 408 123T433 42Q433 -22 393 -75T254 -154V-102ZM45 -102Q74 -91
93 -81T123 -57T133 -24Q133 -10 122 -3T97 13T71 37T60 83Q60 117 80 134T132 152Q174 152 199 123T224 42Q224 -22 184 -75T45 -154V-102Z" />
<glyph unicode="&#x2022;" glyph-name="bullet" horiz-adv-x="400" d="M200 198Q159 198 126 212T75 262T56 356Q56 416 74 450T126 499T200 514Q240 514 272 500T324 451T344 356Q344 297 325 262T273 213T200 198Z" />
<glyph unicode="&#x2039;" glyph-name="guilsinglleft" horiz-adv-x="353" d="M218 70L65 244V296L218 470H288L187 270L288 70H218Z" />
<glyph unicode="&#x203a;" glyph-name="guilsinglright" horiz-adv-x="353" d="M65 70L166 270L65 470H135L288 296V244L135 70H65Z" />
</font>
</defs>
</svg>
