<?xml version="1.0" encoding="UTF-8" standalone="no"?>
<svg
   xmlns:dc="http://purl.org/dc/elements/1.1/"
   xmlns:cc="http://creativecommons.org/ns#"
   xmlns:rdf="http://www.w3.org/1999/02/22-rdf-syntax-ns#"
   xmlns:svg="http://www.w3.org/2000/svg"
   xmlns="http://www.w3.org/2000/svg"
   xmlns:sodipodi="http://sodipodi.sourceforge.net/DTD/sodipodi-0.dtd"
   xmlns:inkscape="http://www.inkscape.org/namespaces/inkscape"
   viewBox="0 0 673.61249 709.31128"
   height="709.31128"
   width="673.61249"
   xml:space="preserve"
   version="1.1"
   id="svg2"
   inkscape:version="0.91 r13725"
   sodipodi:docname="graph2.svg"><sodipodi:namedview
     pagecolor="#ffffff"
     bordercolor="#666666"
     borderopacity="1"
     objecttolerance="10"
     gridtolerance="10"
     guidetolerance="10"
     inkscape:pageopacity="0"
     inkscape:pageshadow="2"
     inkscape:window-width="1855"
     inkscape:window-height="1176"
     id="namedview22"
     showgrid="false"
     fit-margin-top="0"
     fit-margin-left="0"
     fit-margin-right="0"
     fit-margin-bottom="0"
     inkscape:zoom="1.8803065"
     inkscape:cx="279.81361"
     inkscape:cy="629.92974"
     inkscape:window-x="65"
     inkscape:window-y="24"
     inkscape:window-maximized="1"
     inkscape:current-layer="svg2" /><metadata
     id="metadata8"><rdf:RDF><cc:Work
         rdf:about=""><dc:format>image/svg+xml</dc:format><dc:type
           rdf:resource="http://purl.org/dc/dcmitype/StillImage" /><dc:title></dc:title></cc:Work></rdf:RDF></metadata><defs
     id="defs6"><clipPath
       id="clipPath18"
       clipPathUnits="userSpaceOnUse"><path
         id="path20"
         d="M 0,0 540,0 540,568 0,568 0,0 Z"
         inkscape:connector-curvature="0" /></clipPath></defs><g
     transform="matrix(1.25,0,0,-1.25,-1.3875,710)"
     id="g10"><g
       id="g12" /><g
       id="g14"><g
         clip-path="url(#clipPath18)"
         id="g16"><path
           id="path22"
           style="fill:none;stroke:#ff8000;stroke-width:1;stroke-linecap:butt;stroke-linejoin:bevel;stroke-miterlimit:10;stroke-dasharray:none;stroke-opacity:1"
           d="m 1.61,568.205 0,-566.946 m 28.351,566.946 0,-566.946 m 28.351,566.946 0,-566.946 m 28.351,566.946 0,-566.946 m 28.352,566.946 0,-566.946 m 28.351,566.945 0,-566.946 m 28.351,566.944 0,-566.946 m 28.352,566.944 0,-566.946 m 28.351,566.945 0,-566.946 m 28.351,566.944 0,-566.946 m 28.352,566.944 0,-566.946 m 28.351,566.944 0,-566.946 m 28.351,566.945 0,-566.946 m 28.352,566.944 0,-566.946 m 28.351,566.944 0,-566.946 m 28.351,566.944 0,-566.946 m 28.352,566.945 0,-566.946 m 28.351,566.944 0,-566.946 m 28.351,566.944 0,-566.946 m 28.352,566.945 0,-566.946"
           inkscape:connector-curvature="0" /><path
           id="path24"
           style="fill:none;stroke:#ff8000;stroke-width:0.5;stroke-linecap:butt;stroke-linejoin:bevel;stroke-miterlimit:10;stroke-dasharray:none;stroke-opacity:1"
           d="m 1.61,568.205 0,-566.946 m 14.175,566.946 0,-566.946 m 14.176,566.946 0,-566.946 m 14.175,566.946 0,-566.946 m 14.176,566.946 0,-566.946 m 14.176,566.946 0,-566.946 m 14.175,566.946 0,-566.946 m 14.176,566.946 0,-566.946 m 14.176,566.946 0,-566.946 m 14.175,566.946 0,-566.946 m 14.176,566.946 0,-566.946 m 14.176,566.945 0,-566.946 m 14.175,566.945 0,-566.946 m 14.176,566.945 0,-566.946 m 14.176,566.945 0,-566.946 m 14.175,566.945 0,-566.946 m 14.176,566.946 0,-566.946 m 14.176,566.945 0,-566.946 m 14.175,566.945 0,-566.946 m 14.176,566.945 0,-566.946 m 14.176,566.945 0,-566.946 m 14.175,566.945 0,-566.946 m 14.176,566.945 0,-566.946 m 14.176,566.946 0,-566.946 m 14.175,566.945 0,-566.946 m 14.176,566.945 0,-566.946 m 14.176,566.945 0,-566.946 m 14.175,566.945 0,-566.946 m 14.176,566.945 0,-566.946 m 14.176,566.945 0,-566.946 m 14.175,566.945 0,-566.946 m 14.176,566.946 0,-566.946 m 14.176,566.945 0,-566.946 m 14.175,566.945 0,-566.946 m 14.176,566.945 0,-566.946 m 14.176,566.945 0,-566.946 m 14.175,566.945 0,-566.946 m 14.176,566.945 0,-566.946 m 14.176,566.946 0,-566.946"
           inkscape:connector-curvature="0" /><path
           id="path26"
           style="fill:none;stroke:#ff8000;stroke-width:0.25;stroke-linecap:butt;stroke-linejoin:bevel;stroke-miterlimit:10;stroke-dasharray:none;stroke-opacity:1"
           d="m 1.61,568.205 0,-566.946 m 2.835,566.946 0,-566.946 M 7.28,568.205 7.28,1.258 m 2.835,566.946 0,-566.946 m 2.835,566.946 0,-566.946 m 2.835,566.946 0,-566.946 m 2.835,566.946 0,-566.946 m 2.835,566.946 0,-566.946 m 2.836,566.946 0,-566.946 m 2.835,566.946 0,-566.946 m 2.835,566.946 0,-566.946 m 2.835,566.946 0,-566.946 m 2.835,566.946 0,-566.946 m 2.835,566.946 0,-566.946 m 2.835,566.946 0,-566.946 m 2.835,566.946 0,-566.946 m 2.836,566.946 0,-566.946 m 2.835,566.946 0,-566.946 m 2.835,566.946 0,-566.946 m 2.835,566.946 0,-566.946 m 2.835,566.946 0,-566.946 m 2.835,566.946 0,-566.946 m 2.835,566.946 0,-566.946 m 2.836,566.946 0,-566.946 m 2.835,566.946 0,-566.946 m 2.835,566.946 0,-566.946 m 2.835,566.946 0,-566.946 m 2.835,566.946 0,-566.946 m 2.835,566.946 0,-566.946 m 2.835,566.946 0,-566.946 m 2.835,566.946 0,-566.946 m 2.836,566.946 0,-566.946 m 2.835,566.946 0,-566.946 m 2.835,566.946 0,-566.946 m 2.835,566.946 0,-566.946 m 2.835,566.946 0,-566.946 m 2.835,566.946 0,-566.946 m 2.835,566.946 0,-566.946 m 2.835,566.946 0,-566.946 m 2.836,566.946 0,-566.946 m 2.835,566.946 0,-566.946 m 2.835,566.946 0,-566.946 m 2.835,566.946 0,-566.946 m 2.835,566.946 0,-566.946 m 2.835,566.946 0,-566.946 m 2.835,566.946 0,-566.946 m 2.836,566.946 0,-566.946 m 2.835,566.946 0,-566.946 m 2.835,566.946 0,-566.946 m 2.835,566.947 0,-566.946 m 2.835,566.946 0,-566.946 m 2.835,566.946 0,-566.946 m 2.835,566.945 0,-566.946 m 2.835,566.946 0,-566.946 m 2.836,566.946 0,-566.946 m 2.835,566.946 0,-566.946 m 2.835,566.946 0,-566.946 m 2.835,566.946 0,-566.946 m 2.835,566.945 0,-566.946 m 2.835,566.946 0,-566.946 m 2.835,566.946 0,-566.946 m 2.836,566.946 0,-566.946 m 2.835,566.946 0,-566.946 m 2.835,566.946 0,-566.946"
           inkscape:connector-curvature="0" /><path
           id="path28"
           style="fill:none;stroke:#ff8000;stroke-width:0.25;stroke-linecap:butt;stroke-linejoin:bevel;stroke-miterlimit:10;stroke-dasharray:none;stroke-opacity:1"
           d="m 183.058,568.194 0,-566.946 m 2.835,566.946 0,-566.946 m 2.835,566.946 0,-566.946 m 2.835,566.946 0,-566.946 m 2.835,566.946 0,-566.946 m 2.836,566.946 0,-566.946 m 2.835,566.945 0,-566.946 m 2.835,566.946 0,-566.946 m 2.835,566.946 0,-566.946 m 2.835,566.946 0,-566.946 m 2.835,566.946 0,-566.946 m 2.835,566.945 0,-566.946 m 2.835,566.946 0,-566.946 m 2.836,566.946 0,-566.946 m 2.835,566.946 0,-566.946 m 2.835,566.946 0,-566.946 m 2.835,566.946 0,-566.946 m 2.835,566.945 0,-566.946 m 2.835,566.946 0,-566.946 m 2.835,566.946 0,-566.946 m 2.836,566.946 0,-566.946 m 2.835,566.946 0,-566.946 m 2.835,566.946 0,-566.946 m 2.835,566.945 0,-566.946 m 2.835,566.946 0,-566.946 m 2.835,566.946 0,-566.946 m 2.835,566.946 0,-566.946 m 2.835,566.946 0,-566.946 m 2.836,566.946 0,-566.946 m 2.835,566.945 0,-566.946 m 2.835,566.946 0,-566.946 m 2.835,566.946 0,-566.946 m 2.835,566.946 0,-566.946 m 2.835,566.946 0,-566.946 m 2.835,566.945 0,-566.946 m 2.836,566.946 0,-566.946 m 2.835,566.946 0,-566.946 m 2.835,566.946 0,-566.946 m 2.835,566.946 0,-566.946 m 2.835,566.946 0,-566.946 m 2.835,566.945 0,-566.946 m 2.835,566.946 0,-566.946 m 2.835,566.946 0,-566.946 m 2.836,566.946 0,-566.946 m 2.835,566.946 0,-566.946 m 2.835,566.946 0,-566.946 m 2.835,566.945 0,-566.946 m 2.835,566.946 0,-566.946 m 2.835,566.946 0,-566.946 m 2.835,566.946 0,-566.946 m 2.835,566.946 0,-566.946 m 2.836,566.946 0,-566.946 m 2.835,566.945 0,-566.946 m 2.835,566.946 0,-566.946 m 2.835,566.946 0,-566.946 m 2.835,566.946 0,-566.946 m 2.835,566.946 0,-566.946 m 2.835,566.945 0,-566.946 m 2.836,566.946 0,-566.946 m 2.835,566.946 0,-566.946 m 2.835,566.946 0,-566.946 m 2.835,566.946 0,-566.946 m 2.835,566.946 0,-566.946 m 2.835,566.945 0,-566.946"
           inkscape:connector-curvature="0" /><path
           id="path30"
           style="fill:none;stroke:#ff8000;stroke-width:0.25;stroke-linecap:butt;stroke-linejoin:bevel;stroke-miterlimit:10;stroke-dasharray:none;stroke-opacity:1"
           d="m 364.506,568.183 0,-566.946 m 2.835,566.946 0,-566.946 m 2.836,566.946 0,-566.946 m 2.835,566.946 0,-566.946 m 2.835,566.946 0,-566.946 m 2.835,566.945 0,-566.946 m 2.835,566.946 0,-566.946 m 2.835,566.946 0,-566.946 m 2.835,566.946 0,-566.946 m 2.836,566.946 0,-566.946 m 2.835,566.946 0,-566.946 m 2.835,566.945 0,-566.946 m 2.835,566.946 0,-566.946 m 2.835,566.946 0,-566.946 m 2.835,566.946 0,-566.946 m 2.835,566.946 0,-566.946 m 2.835,566.945 0,-566.946 m 2.836,566.946 0,-566.946 m 2.835,566.946 0,-566.946 m 2.835,566.946 0,-566.946 m 2.835,566.946 0,-566.946 m 2.835,566.946 0,-566.946 m 2.835,566.945 0,-566.946 m 2.835,566.946 0,-566.946 m 2.835,566.946 0,-566.946 m 2.836,566.946 0,-566.946 m 2.835,566.946 0,-566.946 m 2.835,566.946 0,-566.946 m 2.835,566.945 0,-566.946 m 2.835,566.946 0,-566.946 m 2.835,566.946 0,-566.946 m 2.835,566.946 0,-566.946 m 2.836,566.946 0,-566.946 m 2.835,566.946 0,-566.946 m 2.835,566.945 0,-566.946 m 2.835,566.946 0,-566.946 m 2.835,566.946 0,-566.946 m 2.835,566.946 0,-566.946 m 2.835,566.946 0,-566.946 m 2.835,566.945 0,-566.946 m 2.836,566.946 0,-566.946 m 2.835,566.946 0,-566.946 m 2.835,566.946 0,-566.946 m 2.835,566.946 0,-566.946 m 2.835,566.946 0,-566.946 m 2.835,566.945 0,-566.946 m 2.835,566.946 0,-566.946 m 2.836,566.946 0,-566.946 m 2.835,566.946 0,-566.946 m 2.835,566.946 0,-566.946 m 2.835,566.946 0,-566.946 m 2.835,566.945 0,-566.946 m 2.835,566.946 0,-566.946 m 2.835,566.946 0,-566.946 m 2.835,566.946 0,-566.946 m 2.836,566.946 0,-566.946 m 2.835,566.946 0,-566.946 m 2.835,566.945 0,-566.946 m 2.835,566.946 0,-566.946 m 2.835,566.946 0,-566.946 m 2.835,566.946 0,-566.946 m 2.835,566.946 0,-566.946 m 2.836,566.946 0,-566.946 m -400.839,566.704 400.602,0"
           inkscape:connector-curvature="0" /><path
           id="path32"
           style="fill:none;stroke:#ff8000;stroke-width:0.25;stroke-linecap:butt;stroke-linejoin:bevel;stroke-miterlimit:10;stroke-dasharray:none;stroke-opacity:1"
           d="m 1.864,565.096 538.183,0 m -538.183,-2.834 538.183,0 m -538.183,-2.835 538.183,0 m -538.183,-2.834 538.183,0 m -538.183,-2.834 538.183,0 m -538.183,-2.835 538.183,0 m -538.183,-2.835 538.183,0 m -538.183,-2.835 538.183,0"
           inkscape:connector-curvature="0" /><path
           id="path34"
           style="fill:none;stroke:#ff8000;stroke-width:0.25;stroke-linecap:butt;stroke-linejoin:bevel;stroke-miterlimit:10;stroke-dasharray:none;stroke-opacity:1"
           d="m 2.289,542.421 537.756,0 m -537.756,-2.834 537.756,0 m -537.757,-2.835 537.756,0 m -537.756,-2.834 537.756,0 m -537.757,-2.835 537.756,0 m -537.756,-2.834 537.756,0 m -537.756,-2.834 537.756,0 M 2.286,522.58 l 537.756,0 m -537.756,-2.834 537.756,0 m -537.757,-2.835 537.756,0 m -537.756,-2.834 537.756,0 m -537.756,-2.834 537.756,0 m -537.757,-2.835 537.756,0 m -537.756,-2.834 537.756,0 M 2.284,502.74 l 537.756,0 m -537.757,-2.835 537.756,0 m -537.756,-2.834 537.756,0 m -537.757,-2.835 537.756,0 m -537.756,-2.834 537.756,0 m -537.756,-2.834 537.756,0 m -537.757,-2.835 537.756,0 m -537.756,-2.834 537.756,0 M 2.28,480.064 l 537.756,0 M 2.28,477.23 l 537.756,0 M 2.28,474.396 l 537.756,0 m -537.757,-2.835 537.756,0 m -537.756,-2.834 537.756,0 m -537.757,-2.835 537.756,0 m -537.756,-2.834 537.756,0 m -537.756,-2.834 537.756,0 m -537.757,-2.835 537.756,0 m -537.756,-2.834 537.756,0 m -537.756,-2.834 537.756,0 m -537.757,-2.835 537.756,0 m -537.756,-2.834 537.756,0 m -537.757,-2.835 537.756,0 m -537.756,-2.834 537.756,0 m -537.756,-2.834 537.756,0 m -537.757,-2.835 537.756,0 M 2.274,431.88 l 537.756,0 m -537.757,-2.835 537.756,0 m -537.756,-2.834 537.756,0 m -537.756,-2.834 537.756,0 m -537.757,-2.835 537.756,0 m -537.756,-2.834 537.756,0 m -537.757,-2.835 537.756,0 m -537.756,-2.834 537.756,0 m -537.756,-2.834 537.756,0 M 2.27,406.37 l 537.756,0 M 2.27,403.536 l 537.756,0 m -537.757,-2.835 537.756,0 m -537.756,-2.834 537.756,0 m -537.756,-2.834 537.756,0 m -537.757,-2.835 537.756,0 m -537.756,-2.834 537.756,0 M 2.268,386.53 l 537.756,0 m -537.757,-2.835 537.756,0 m -537.756,-2.834 537.756,0 m -537.757,-2.835 537.756,0 m -537.756,-2.834 537.756,0 m -537.756,-2.834 537.756,0 m -537.757,-2.835 537.756,0 m -537.756,-2.834 537.756,0 m -537.757,-2.835 537.756,0"
           inkscape:connector-curvature="0" /><path
           id="path36"
           style="fill:none;stroke:#ff8000;stroke-width:0.25;stroke-linecap:butt;stroke-linejoin:bevel;stroke-miterlimit:10;stroke-dasharray:none;stroke-opacity:1"
           d="m 2.264,361.02 537.756,0 m -537.756,-2.834 537.756,0 m -537.757,-2.835 537.756,0 m -537.756,-2.834 537.756,0 m -537.757,-2.835 537.756,0 m -537.756,-2.834 537.756,0 m -537.756,-2.834 537.756,0 m -537.757,-2.835 537.756,0 m -537.756,-2.834 537.756,0 m -537.756,-2.834 537.756,0 M 2.26,332.676 l 537.756,0 M 2.26,329.842 l 537.756,0 m -537.757,-2.835 537.756,0 m -537.756,-2.834 537.756,0 m -537.756,-2.834 537.756,0 m -537.757,-2.835 537.756,0 M 2.258,315.67 l 537.756,0 m -537.757,-2.835 537.756,0 m -537.756,-2.834 537.756,0 m -537.756,-2.834 537.756,0 m -537.757,-2.835 537.756,0 m -537.756,-2.834 537.756,0 m -537.757,-2.835 537.756,0 m -537.756,-2.834 537.756,0 m -537.756,-2.834 537.756,0 M 2.254,290.16 l 537.756,0 m -537.756,-2.834 537.756,0 m -537.756,-2.834 537.756,0 m -537.757,-2.835 537.756,0 m -537.756,-2.834 537.756,0 m -537.757,-2.835 537.756,0 m -537.756,-2.834 537.756,0 M 2.252,270.32 l 537.756,0 m -537.757,-2.835 537.756,0 m -537.756,-2.834 537.756,0 M 2.25,261.816 l 537.756,0 M 2.25,258.982 l 537.756,0 M 2.25,256.148 l 537.756,0 m -537.757,-2.835 537.756,0 m -537.756,-2.834 537.756,0 m -537.757,-2.835 537.756,0 M 2.248,244.81 l 537.756,0 m -537.756,-2.834 537.756,0 m -537.757,-2.835 537.756,0 m -537.756,-2.834 537.756,0 m -537.757,-2.835 537.756,0 m -537.756,-2.834 537.756,0 m -537.756,-2.834 537.756,0 m -537.757,-2.835 537.756,0 m -537.756,-2.834 537.756,0 m -537.756,-2.834 537.756,0 m -537.757,-2.835 537.756,0 m -537.756,-2.834 537.756,0 m -537.757,-2.835 537.756,0 m -537.756,-2.834 537.756,0 m -537.756,-2.834 537.756,0 m -537.757,-2.835 537.756,0 M 2.242,199.46 l 537.756,0 m -537.757,-2.835 537.756,0 m -537.756,-2.834 537.756,0 m -537.756,-2.834 537.756,0 M 2.24,188.122 l 537.756,0 M 2.24,185.288 l 537.756,0 m -537.757,-2.835 537.756,0"
           inkscape:connector-curvature="0" /><path
           id="path38"
           style="fill:none;stroke:#ff8000;stroke-width:0.25;stroke-linecap:butt;stroke-linejoin:bevel;stroke-miterlimit:10;stroke-dasharray:none;stroke-opacity:1"
           d="m 2.239,179.619 537.756,0 m -537.756,-2.834 537.756,0 M 2.238,173.95 l 537.756,0 m -537.756,-2.834 537.756,0 m -537.756,-2.834 537.756,0 m -537.757,-2.835 537.756,0 m -537.756,-2.834 537.756,0 m -537.757,-2.835 537.756,0 m -537.756,-2.834 537.756,0 M 2.236,154.11 l 537.756,0 m -537.757,-2.835 537.756,0 m -537.756,-2.834 537.756,0 m -537.757,-2.835 537.756,0 m -537.756,-2.834 537.756,0 m -537.756,-2.834 537.756,0 m -537.757,-2.835 537.756,0 m -537.756,-2.834 537.756,0 m -537.757,-2.835 537.756,0 M 2.232,128.6 l 537.756,0 m -537.756,-2.834 537.756,0 m -537.757,-2.835 537.756,0 m -537.756,-2.834 537.756,0 M 2.23,117.262 l 537.756,0 M 2.23,114.428 l 537.756,0 M 2.23,111.594 l 537.756,0 m -537.757,-2.835 537.756,0 m -537.756,-2.834 537.756,0 m -537.756,-2.834 537.756,0 m -537.757,-2.835 537.756,0 M 2.228,97.422 l 537.756,0 M 2.227,94.587 l 537.756,0 M 2.227,91.753 l 537.756,0 M 2.227,88.919 l 537.756,0 M 2.226,86.084 l 537.756,0 M 2.226,83.25 l 537.756,0 M 2.225,80.415 l 537.756,0 M 2.225,77.581 l 537.756,0 M 2.225,74.747 l 537.756,0 M 2.224,71.912 l 537.756,0 M 2.224,69.078 l 537.756,0 M 2.223,66.243 l 537.756,0 M 2.223,63.409 l 537.756,0 M 2.223,60.575 l 537.756,0 M 2.222,57.74 l 537.756,0 M 2.222,54.906 l 537.756,0 M 2.222,52.072 l 537.756,0 M 2.221,49.237 l 537.756,0 M 2.221,46.403 l 537.756,0 M 2.22,43.568 l 537.756,0 M 2.22,40.734 l 537.756,0 M 2.22,37.9 l 537.756,0 M 2.219,35.065 l 537.756,0 M 2.219,32.231 l 537.756,0 M 2.218,29.396 l 537.756,0 M 2.218,26.562 l 537.756,0 M 2.218,23.728 l 537.756,0 M 2.217,20.893 l 537.756,0 M 2.217,18.059 l 537.756,0 M 2.216,15.224 l 537.756,0 M 2.216,12.39 l 537.756,0 M 2.216,9.556 l 537.756,0 M 2.215,6.721 l 537.756,0 M 2.215,3.887 l 537.756,0 M 2.215,1.053 l 537.756,0"
           inkscape:connector-curvature="0" /><path
           id="path40"
           style="fill:none;stroke:#ff8000;stroke-width:1;stroke-linecap:butt;stroke-linejoin:bevel;stroke-miterlimit:10;stroke-dasharray:none;stroke-opacity:1"
           d="m 2.089,567.931 537.756,0 m -537.76,-28.344 537.756,0 m -537.76,-28.344 537.756,0 m -537.76,-28.344 537.756,0 m -537.76,-28.344 537.756,0 m -537.76,-28.344 537.756,0 m -537.76,-28.344 537.756,0 m -537.76,-28.344 537.756,0 m -537.76,-28.344 537.756,0 m -537.76,-28.344 537.756,0 m -537.76,-28.344 537.756,0 m -537.76,-28.344 537.756,0 m -537.76,-28.344 537.756,0 m -537.76,-28.344 537.756,0 m -537.76,-28.344 537.756,0 m -537.76,-28.344 537.756,0 m -537.76,-28.344 537.756,0 M 2.021,86.083 l 537.756,0 M 2.017,57.739 l 537.756,0 M 2.013,29.395 l 537.756,0 M 2.009,1.051 l 537.756,0"
           inkscape:connector-curvature="0" /><path
           id="path42"
           style="fill:none;stroke:#ff8000;stroke-width:0.5;stroke-linecap:butt;stroke-linejoin:bevel;stroke-miterlimit:10;stroke-dasharray:none;stroke-opacity:1"
           d="m 1.864,567.931 538.183,0 M 1.864,553.759 l 538.183,0 M 1.864,539.587 l 538.183,0 M 1.864,525.415 l 538.183,0 M 1.864,511.243 l 538.183,0 M 1.864,497.071 l 538.183,0 M 1.864,482.899 l 538.183,0 M 1.864,468.727 l 538.183,0 M 1.864,454.555 l 538.183,0 M 1.864,440.383 l 538.183,0 M 1.864,426.211 l 538.183,0 M 1.864,412.039 l 538.183,0 M 1.864,397.867 l 538.183,0 M 1.864,383.695 l 538.183,0 M 1.864,369.523 l 538.183,0 M 1.864,355.351 l 538.183,0 M 1.864,341.179 l 538.183,0 M 1.864,327.007 l 538.183,0 M 1.864,312.835 l 538.183,0 M 1.864,298.663 l 538.183,0 M 1.864,284.491 l 538.183,0 M 1.864,270.319 l 538.183,0 M 1.864,256.147 l 538.183,0 M 1.864,241.975 l 538.183,0 M 1.864,227.803 l 538.183,0 M 1.864,213.631 l 538.183,0 M 1.864,199.459 l 538.183,0 M 1.864,185.287 l 538.183,0 M 1.864,171.115 l 538.183,0 M 1.864,156.943 l 538.183,0 M 1.864,142.771 l 538.183,0 M 1.864,128.599 l 538.183,0 M 1.864,114.427 l 538.183,0 M 1.864,100.255 l 538.183,0 M 1.864,86.083 l 538.183,0 M 1.864,71.911 l 538.183,0 M 1.864,57.739 l 538.183,0 M 1.864,43.567 l 538.183,0 M 1.864,29.395 l 538.183,0 M 1.864,15.223 l 538.183,0 M 1.864,1.051 l 538.183,0"
           inkscape:connector-curvature="0" /></g></g></g></svg>