<?xml version="1.0" standalone="no"?>
<!DOCTYPE svg PUBLIC "-//W3C//DTD SVG 20010904//EN"
 "http://www.w3.org/TR/2001/REC-SVG-20010904/DTD/svg10.dtd">
<svg version="1.0" xmlns="http://www.w3.org/2000/svg"
 width="16.000000pt" height="16.000000pt" viewBox="0 0 16.000000 16.000000"
 preserveAspectRatio="xMidYMid meet">
<metadata>
Created by potrace 1.11, written by Peter Selinger 2001-2013
</metadata>
<g transform="translate(0.000000,16.000000) scale(0.002065,-0.002065)"
fill="#000000" stroke="none">
<path d="M3670 7743 c-235 -86 -383 -271 -415 -518 -4 -27 -9 -52 -10 -54 -2
-2 -158 -4 -347 -5 -379 -3 -379 -3 -451 -68 -20 -19 -46 -56 -59 -83 -22 -49
-22 -56 -23 -520 -1 -258 0 -475 2 -480 2 -7 506 -10 1496 -10 l1492 0 2 480
2 480 -23 50 c-12 28 -40 65 -61 84 -74 65 -76 65 -440 68 -181 1 -338 2 -347
2 -14 1 -18 10 -18 39 0 47 -25 154 -47 201 -66 143 -199 268 -339 321 -48 17
-77 20 -227 19 -95 0 -179 -3 -187 -6z m300 -394 c99 -56 136 -189 79 -287
-68 -118 -220 -145 -327 -57 -121 100 -85 303 63 360 53 20 134 13 185 -16z"/>
<path d="M1373 6565 c-58 -17 -101 -50 -134 -103 l-29 -46 0 -3114 c0 -2840 1
-3117 16 -3148 22 -46 68 -89 123 -115 l46 -21 2467 0 2468 0 53 26 c62 30
114 89 132 150 10 32 12 694 13 3106 0 2957 -1 3067 -19 3114 -21 57 -67 109
-124 139 -38 21 -55 22 -342 24 l-303 2 -1 -27 c-5 -174 -2 -555 5 -559 5 -4
69 -6 143 -6 73 0 136 -4 139 -9 5 -7 8 -3852 5 -4158 l-1 -45 -2167 0 -2168
0 0 2105 0 2105 146 0 147 0 0 296 1 296 -287 1 c-205 0 -299 -4 -329 -13z"/>
<path d="M2295 3905 l0 -1335 685 0 685 0 0 188 0 187 -455 5 -455 5 0 390 0
390 397 3 397 2 0 180 0 180 -397 2 -397 3 0 385 0 385 455 5 455 5 0 178 0
177 -685 0 -685 0 0 -1335z"/>
<path d="M4039 4448 c-1 -2 -2 -74 -3 -160 l-1 -158 676 0 675 0 2 160 2 160
-675 0 c-371 0 -676 -1 -676 -2z"/>
<path d="M4037 3643 c-2 -5 -3 -75 -3 -158 l1 -150 677 -3 678 -2 -2 160 -1
160 -673 0 c-370 0 -674 -3 -677 -7z"/>
</g>
</svg>
