<?xml version="1.0" encoding="UTF-8" standalone="no"?>
<!-- Created with Inkscape (http://www.inkscape.org/) -->
<svg xmlns:dc="http://purl.org/dc/elements/1.1/" xmlns:cc="http://creativecommons.org/ns#" xmlns:rdf="http://www.w3.org/1999/02/22-rdf-syntax-ns#" xmlns:svg="http://www.w3.org/2000/svg" xmlns="http://www.w3.org/2000/svg" xmlns:xlink="http://www.w3.org/1999/xlink" xmlns:sodipodi="http://sodipodi.sourceforge.net/DTD/sodipodi-0.dtd" xmlns:inkscape="http://www.inkscape.org/namespaces/inkscape" width="744.09448819" height="1052.3622047" id="svg3014" version="1.1" inkscape:version="0.48.4 r9939" sodipodi:docname="chocobunny.svg">
  <defs id="defs3016">
    <linearGradient id="linearGradient3878">
      <stop style="stop-color:#784421;stop-opacity:1;" offset="0" id="stop3880"/>
      <stop style="stop-color:#452a18;stop-opacity:1;" offset="1" id="stop3882"/>
    </linearGradient>
    <linearGradient inkscape:collect="always" xlink:href="#linearGradient3878" id="linearGradient3884" x1="-740.49017" y1="555.19214" x2="-722.85712" y2="618.07648" gradientUnits="userSpaceOnUse" gradientTransform="translate(1022.2744,286.88332)"/>
    <linearGradient inkscape:collect="always" xlink:href="#linearGradient3878" id="linearGradient3888" gradientUnits="userSpaceOnUse" x1="-748.57141" y1="556.64789" x2="-722.85712" y2="618.07648" gradientTransform="matrix(-1,0,0,1,-306.70192,288.31189)"/>
  </defs>
  <sodipodi:namedview id="base" pagecolor="#ffffff" bordercolor="#666666" borderopacity="1.0" inkscape:pageopacity="0.0" inkscape:pageshadow="2" inkscape:zoom="0.49497475" inkscape:cx="492.35443" inkscape:cy="454.85785" inkscape:document-units="px" inkscape:current-layer="layer1" showgrid="false" showguides="true" inkscape:guide-bbox="true" inkscape:window-width="1301" inkscape:window-height="744" inkscape:window-x="65" inkscape:window-y="24" inkscape:window-maximized="1"/>
  <metadata id="metadata3019">
    <rdf:RDF>
      <cc:Work rdf:about="">
        <dc:format>image/svg+xml</dc:format>
        <dc:type rdf:resource="http://purl.org/dc/dcmitype/StillImage"/>
        <dc:title/>
      </cc:Work>
    </rdf:RDF>
  </metadata>
  <g inkscape:label="Layer 1" inkscape:groupmode="layer" id="layer1">
    <rect style="fill:#ffffff;fill-opacity:1;stroke:#d7e3f4;stroke-width:0.85369825;stroke-miterlimit:4;stroke-opacity:1;stroke-dasharray:none" id="rect3047" width="1379.9463" height="1425.1211" x="-259.97314" y="-201.35719"/>
    <path style="fill:#5b3116;fill-opacity:1;stroke:none" d="m 267.18535,919.02204 40.91118,35.86042 11.61675,-15.65737 z" id="path3996" inkscape:connector-curvature="0"/>
    <path style="fill:#5b3116;fill-opacity:1;stroke:none" d="m 514.41724,298.88836 -26.42858,-51.42857 -26.07142,11.78571 -3.57143,26.78572 c 0,0 7.47314,45.35714 56.07143,12.85714 z" id="path3990" inkscape:connector-curvature="0" sodipodi:nodetypes="ccccc"/>
    <g id="g3966" transform="translate(1053.7029,315.45475)" style="fill:#5b3116;fill-opacity:1;stroke:none">
      <path sodipodi:type="arc" style="fill:#5b3116;fill-opacity:1;stroke:none" id="path3938" sodipodi:cx="-1084.2858" sodipodi:cy="360.93362" sodipodi:rx="77.14286" sodipodi:ry="208.57143" d="m -1007.1429,360.93362 c 0,115.19082 -34.538,208.57143 -77.1429,208.57143 -42.6048,0 -77.1428,-93.38061 -77.1428,-208.57143 0,-115.19081 34.538,-208.57142 77.1428,-208.57142 42.6049,0 77.1429,93.38061 77.1429,208.57142 z" transform="matrix(1.5173387,0,0,0.92079654,985.22878,102.15863)"/>
      <path style="fill:#5b3116;fill-opacity:1;stroke:none" d="m -749.78572,615.72375 c -12.1123,0.82957 -40.23786,-30.23358 -34.59773,-64.39723 19.97357,-67.82782 67.07621,-42.6786 83.08504,-12.62691 1.61984,16.42242 -11.0511,18.56035 -13.88959,25.75889 -1.74352,4.42163 15.15228,27.7792 15.65736,29.7995 0.50507,2.02031 8.83884,3.283 -50.25508,21.46575 z" id="path3940" inkscape:connector-curvature="0" sodipodi:nodetypes="cccssc"/>
      <path style="fill:#5b3116;fill-opacity:1;stroke:none" d="m -638.01668,20.423394 c -28.31186,82.463666 -32.71392,154.019946 -9.83224,159.825416 22.88167,5.80547 64.38223,-56.33829 92.69409,-138.801959 10.94076,-31.8670122 15.54866,-57.978546 15.54866,-57.978546 L -607.33489,-48.3054 c 0,0 -21.341,41.521973 -30.68179,68.728794 z" id="path3942" inkscape:connector-curvature="0" sodipodi:nodetypes="sssccs"/>
      <path transform="matrix(-0.73854033,-0.18738022,-0.2179726,0.63488642,-1209.9239,-130.25346)" style="fill:#5b3116;fill-opacity:1;stroke:none" d="m -795.71426,8.0764675 c 0,85.9986215 -16.62942,155.7142825 -37.14286,155.7142825 -20.51343,0 -37.14285,-69.715661 -37.14285,-155.7142825 0,-48.3363855 13.49718,-120.0896575 13.49718,-120.0896575 l 48.74463,5.30537 c 0,0 12.0439,69.352577 12.0439,114.7842875 z" id="path3944" inkscape:connector-curvature="0" sodipodi:nodetypes="sssccs"/>
      <path sodipodi:type="arc" style="fill:#5b3116;fill-opacity:1;stroke:none" id="path3946" sodipodi:cx="-832.85712" sodipodi:cy="8.0764675" sodipodi:rx="37.142857" sodipodi:ry="155.71428" d="m -795.71426,8.0764675 c 0,85.9986215 -16.62942,155.7142825 -37.14286,155.7142825 -20.51343,0 -37.14285,-69.715661 -37.14285,-155.7142825 0,-85.9986215 16.62942,-155.7142775 37.14285,-155.7142775 20.51344,0 37.14286,69.715656 37.14286,155.7142775 z" transform="matrix(1.1932542,-0.10258835,0.12308866,0.99451878,281.22298,-60.519721)"/>
      <path transform="matrix(0.79005592,-0.06792395,0.08149724,0.65847282,-54.24766,-28.935158)" d="m -795.71426,8.0764675 c 0,85.9986215 -16.62942,155.7142825 -37.14286,155.7142825 -20.51343,0 -37.14285,-69.715661 -37.14285,-155.7142825 0,-85.9986215 16.62942,-155.7142775 37.14285,-155.7142775 20.51344,0 37.14286,69.715656 37.14286,155.7142775 z" sodipodi:ry="155.71428" sodipodi:rx="37.142857" sodipodi:cy="8.0764675" sodipodi:cx="-832.85712" id="path3948" style="fill:#5b3116;fill-opacity:1;stroke:none" sodipodi:type="arc"/>
      <path sodipodi:type="arc" style="fill:#5b3116;fill-opacity:1;stroke:none" id="path3950" sodipodi:cx="-671.24634" sodipodi:cy="216.46095" sodipodi:rx="111.62186" sodipodi:ry="111.62186" d="m -559.62448,216.46095 c 0,61.64705 -49.97481,111.62186 -111.62186,111.62186 -61.64705,0 -111.62185,-49.97481 -111.62185,-111.62186 0,-61.64705 49.9748,-111.62185 111.62185,-111.62185 61.64705,0 111.62186,49.9748 111.62186,111.62185 z" transform="translate(12.121831,-6.0609153)"/>
      <path transform="matrix(0.17038963,0,0,0.17038963,-580.10643,146.24321)" d="m -559.62448,216.46095 c 0,61.64705 -49.97481,111.62186 -111.62186,111.62186 -61.64705,0 -111.62185,-49.97481 -111.62185,-111.62186 0,-61.64705 49.9748,-111.62185 111.62185,-111.62185 61.64705,0 111.62186,49.9748 111.62186,111.62185 z" sodipodi:ry="111.62186" sodipodi:rx="111.62186" sodipodi:cy="216.46095" sodipodi:cx="-671.24634" id="path3952" style="fill:#5b3116;fill-opacity:1;stroke:none" sodipodi:type="arc"/>
      <path sodipodi:type="arc" style="fill:#5b3116;fill-opacity:1;stroke:none" id="path3954" sodipodi:cx="-671.24634" sodipodi:cy="216.46095" sodipodi:rx="111.62186" sodipodi:ry="111.62186" d="m -559.62448,216.46095 c 0,61.64705 -49.97481,111.62186 -111.62186,111.62186 -61.64705,0 -111.62185,-49.97481 -111.62185,-111.62186 0,-61.64705 49.9748,-111.62185 111.62185,-111.62185 61.64705,0 111.62186,49.9748 111.62186,111.62185 z" transform="matrix(0.17038963,0,0,0.17038963,-514.44651,146.24321)"/>
      <path style="fill:#5b3116;fill-opacity:1;stroke:none" d="m -744.59688,306.29905 c -40.80012,3.90297 -77.69348,134.09699 -56.71665,184.32914 30.24639,30.2399 125.41193,8.99749 116.9781,-44.3099 -18.96697,-20.36978 -27.47475,1.88858 -61.63357,-9.61969 -36.76054,-24.62967 42.07945,-112.06563 1.37212,-130.39955 z" id="path3956" inkscape:connector-curvature="0" sodipodi:nodetypes="ccccc"/>
      <path sodipodi:nodetypes="ccccc" inkscape:connector-curvature="0" id="path3958" d="m -581.9437,306.29905 c 40.80012,3.90297 77.69348,134.09699 56.71665,184.32914 -30.24639,30.2399 -125.41193,8.99749 -116.9781,-44.3099 18.96697,-20.36978 27.47475,1.88858 61.63357,-9.61969 36.76054,-24.62967 -42.07945,-112.06563 -1.37212,-130.39955 z" style="fill:#5b3116;fill-opacity:1;stroke:none"/>
      <path sodipodi:type="arc" style="fill:#5b3116;fill-opacity:1;stroke:none" id="path3960" sodipodi:cx="-886.29395" sodipodi:cy="630.93359" sodipodi:rx="52.008236" sodipodi:ry="32.142857" d="m -834.28571,630.93359 c 0,17.75201 -23.28488,32.14286 -52.00824,32.14286 -28.72335,0 -52.00823,-14.39085 -52.00823,-32.14286 0,-17.75201 23.28488,-32.14285 52.00823,-32.14285 28.72336,0 52.00824,14.39084 52.00824,32.14285 z" transform="matrix(0.92341357,0,0,0.92341357,105.95763,35.106669)"/>
      <path sodipodi:nodetypes="cccssc" inkscape:connector-curvature="0" id="path3962" d="m -579.19053,617.15232 c 12.1123,0.82957 40.23786,-30.23358 34.59773,-64.39723 -19.97357,-67.82782 -67.07621,-42.6786 -83.08504,-12.62691 -1.61984,16.42242 11.0511,18.56035 13.88959,25.75889 1.74352,4.42163 -15.15228,27.7792 -15.65736,29.7995 -0.50507,2.02031 -8.83884,3.283 50.25508,21.46575 z" style="fill:#5b3116;fill-opacity:1;stroke:none"/>
      <path transform="matrix(0.92341357,0,0,0.92341357,204.52906,35.106669)" d="m -834.28571,630.93359 c 0,17.75201 -23.28488,32.14286 -52.00824,32.14286 -28.72335,0 -52.00823,-14.39085 -52.00823,-32.14286 0,-17.75201 23.28488,-32.14285 52.00823,-32.14285 28.72336,0 52.00824,14.39084 52.00824,32.14285 z" sodipodi:ry="32.142857" sodipodi:rx="52.008236" sodipodi:cy="630.93359" sodipodi:cx="-886.29395" id="path3964" style="fill:#5b3116;fill-opacity:1;stroke:none" sodipodi:type="arc"/>
      <path style="fill:#5b3116;fill-opacity:1;stroke:none" d="m -678.21429,-79.780676 -40,-38.214284 -8.92857,-0.35714 1.42857,10.71428 7.5,17.857144 z" id="path3986" inkscape:connector-curvature="0" transform="translate(-31.428572,-28.571429)"/>
    </g>
    <path sodipodi:type="arc" style="fill:#5b3116;fill-opacity:1;stroke:#000000;stroke-width:1;stroke-miterlimit:4;stroke-opacity:1;stroke-dasharray:none" id="path3852" sodipodi:cx="-1084.2858" sodipodi:cy="360.93362" sodipodi:rx="77.14286" sodipodi:ry="208.57143" d="m -1007.1429,360.93362 a 77.14286,208.57143 0 1 1 -154.2857,0 77.14286,208.57143 0 1 1 154.2857,0 z" transform="matrix(1.5173387,0,0,0.92079654,2007.5032,389.04195)"/>
    <path style="fill:url(#linearGradient3884);fill-opacity:1;stroke:#000000;stroke-width:1px;stroke-linecap:butt;stroke-linejoin:miter;stroke-opacity:1" d="m 272.48866,902.60707 c -12.1123,0.82957 -40.23786,-30.23358 -34.59773,-64.39723 19.97357,-67.82782 67.07621,-42.6786 83.08504,-12.62691 1.61984,16.42242 -11.0511,18.56035 -13.88959,25.75889 -1.74352,4.42163 15.15228,27.7792 15.65736,29.7995 0.50507,2.02031 8.83884,3.283 -50.25508,21.46575 z" id="path3866" inkscape:connector-curvature="0" sodipodi:nodetypes="cccssc"/>
    <path style="fill:#502d16;fill-opacity:1;stroke:#000000;stroke-width:0.86265367;stroke-miterlimit:4;stroke-opacity:1" d="m 384.2577,307.30672 c -28.31186,82.46366 -32.71392,154.01994 -9.83224,159.82541 22.88167,5.80547 64.38223,-56.33829 92.69409,-138.80196 10.94076,-31.86701 20.9058,-80.47854 20.9058,-80.47854 l -73.08586,-9.27371 c 0,0 -21.341,41.52198 -30.68179,68.7288 z" id="path3049" inkscape:connector-curvature="0" sodipodi:nodetypes="sssccs"/>
    <path style="fill:#784421;fill-opacity:1;stroke:#000000;stroke-width:0.57116473;stroke-miterlimit:4;stroke-opacity:1" d="m 398.2571,310.85862 c -18.74534,54.59935 -21.65995,101.9769 -6.50995,105.82072 15.15,3.84381 42.6276,-37.3017 61.37294,-91.90105 10.53601,-30.68812 16.20804,-78.7724 16.20804,-78.7724 l -37.1563,-5.76547 c 0,0 -24.01186,41.77422 -33.91473,70.6182 z" id="path3051" inkscape:connector-curvature="0" sodipodi:nodetypes="sssccs"/>
    <path sodipodi:type="arc" style="fill:#502d16;fill-opacity:1;stroke:#000000;stroke-width:0.80000001;stroke-miterlimit:4;stroke-opacity:1;stroke-dasharray:none" id="path3045" sodipodi:cx="-832.85712" sodipodi:cy="8.0764675" sodipodi:rx="37.142857" sodipodi:ry="155.71428" d="m -795.71426,8.0764675 a 37.142857,155.71428 0 1 1 -74.28571,0 37.142857,155.71428 0 1 1 74.28571,0 z" transform="matrix(1.1932542,-0.10258835,0.12308866,0.99451878,1303.4974,226.3636)"/>
    <path transform="matrix(0.79005592,-0.06792395,0.08149724,0.65847282,968.02672,257.94816)" d="m -795.71426,8.0764675 a 37.142857,155.71428 0 1 1 -74.28571,0 37.142857,155.71428 0 1 1 74.28571,0 z" sodipodi:ry="155.71428" sodipodi:rx="37.142857" sodipodi:cy="8.0764675" sodipodi:cx="-832.85712" id="path3047" style="fill:#784421;fill-opacity:1;stroke:#000000;stroke-width:0.80000001;stroke-miterlimit:4;stroke-opacity:1;stroke-dasharray:none" sodipodi:type="arc"/>
    <path sodipodi:type="arc" style="fill:#784421;fill-opacity:1;stroke:#000000;stroke-width:0.80000001;stroke-miterlimit:4;stroke-opacity:1;stroke-dasharray:none" id="path3078" sodipodi:cx="-671.24634" sodipodi:cy="216.46095" sodipodi:rx="111.62186" sodipodi:ry="111.62186" d="m -559.62448,216.46095 a 111.62186,111.62186 0 1 1 -223.24371,0 111.62186,111.62186 0 1 1 223.24371,0 z" transform="translate(1034.3962,280.82241)"/>
    <path transform="matrix(0.17038963,0,0,0.17038963,442.16795,433.12653)" d="m -559.62448,216.46095 a 111.62186,111.62186 0 1 1 -223.24371,0 111.62186,111.62186 0 1 1 223.24371,0 z" sodipodi:ry="111.62186" sodipodi:rx="111.62186" sodipodi:cy="216.46095" sodipodi:cx="-671.24634" id="path3080" style="fill:#502d16;fill-opacity:1;stroke:#000000;stroke-width:5.86890173;stroke-miterlimit:4;stroke-opacity:1;stroke-dasharray:none" sodipodi:type="arc"/>
    <path sodipodi:type="arc" style="fill:#502d16;fill-opacity:1;stroke:#000000;stroke-width:5.86890173;stroke-miterlimit:4;stroke-opacity:1;stroke-dasharray:none" id="path3850" sodipodi:cx="-671.24634" sodipodi:cy="216.46095" sodipodi:rx="111.62186" sodipodi:ry="111.62186" d="m -559.62448,216.46095 a 111.62186,111.62186 0 1 1 -223.24371,0 111.62186,111.62186 0 1 1 223.24371,0 z" transform="matrix(0.17038963,0,0,0.17038963,507.82787,433.12653)"/>
    <path style="fill:#784421;fill-opacity:1;stroke:#000000;stroke-width:1.24067676px;stroke-linecap:butt;stroke-linejoin:miter;stroke-opacity:1" d="m 277.6775,593.18237 c -40.80012,3.90297 -77.69348,134.09699 -56.71665,184.32914 30.24639,30.2399 125.41193,8.99749 116.9781,-44.3099 -18.96697,-20.36978 -27.47475,1.88858 -61.63357,-9.61969 -36.76054,-24.62967 42.07945,-112.06563 1.37212,-130.39955 z" id="path3854" inkscape:connector-curvature="0" sodipodi:nodetypes="ccccc"/>
    <path sodipodi:nodetypes="ccccc" inkscape:connector-curvature="0" id="path3858" d="m 440.33068,593.18237 c 40.80012,3.90297 77.69348,134.09699 56.71665,184.32914 -30.24639,30.2399 -125.41193,8.99749 -116.9781,-44.3099 18.96697,-20.36978 27.47475,1.88858 61.63357,-9.61969 36.76054,-24.62967 -42.07945,-112.06563 -1.37212,-130.39955 z" style="fill:#784421;fill-opacity:1;stroke:#000000;stroke-width:1.24067676px;stroke-linecap:butt;stroke-linejoin:miter;stroke-opacity:1"/>
    <path sodipodi:type="arc" style="fill:#784421;fill-opacity:1;stroke:#000000;stroke-width:1;stroke-miterlimit:4;stroke-opacity:1;stroke-dasharray:none" id="path3862" sodipodi:cx="-886.29395" sodipodi:cy="630.93359" sodipodi:rx="52.008236" sodipodi:ry="32.142857" d="m -834.28571,630.93359 a 52.008236,32.142857 0 1 1 -104.01647,0 52.008236,32.142857 0 1 1 104.01647,0 z" transform="matrix(0.92341357,0,0,0.92341357,1128.232,321.98999)"/>
    <path sodipodi:nodetypes="cccssc" inkscape:connector-curvature="0" id="path3886" d="m 443.08385,904.03564 c 12.1123,0.82957 40.23786,-30.23358 34.59773,-64.39723 -19.97357,-67.82782 -67.07621,-42.6786 -83.08504,-12.62691 -1.61984,16.42242 11.0511,18.56035 13.88959,25.75889 1.74352,4.42163 -15.15228,27.7792 -15.65736,29.7995 -0.50507,2.02031 -8.83884,3.283 50.25508,21.46575 z" style="fill:url(#linearGradient3888);fill-opacity:1;stroke:#000000;stroke-width:1px;stroke-linecap:butt;stroke-linejoin:miter;stroke-opacity:1"/>
    <path transform="matrix(0.92341357,0,0,0.92341357,1226.8034,321.98999)" d="m -834.28571,630.93359 a 52.008236,32.142857 0 1 1 -104.01647,0 52.008236,32.142857 0 1 1 104.01647,0 z" sodipodi:ry="32.142857" sodipodi:rx="52.008236" sodipodi:cy="630.93359" sodipodi:cx="-886.29395" id="path3864" style="fill:#784421;fill-opacity:1;stroke:#000000;stroke-width:1;stroke-miterlimit:4;stroke-opacity:1;stroke-dasharray:none" sodipodi:type="arc"/>
    <g id="g3045" style="stroke:none" transform="matrix(-0.5,-0.8660254,0.8660254,-0.5,651.36939,-142.34191)">
      <path transform="matrix(0.74549453,0,0,1,-122.16262,0)" d="m -382.85713,-154.78067 c 0,26.82526 -21.74617,48.57143 -48.57143,48.57143 -26.82526,0 -48.57143,-21.74617 -48.57143,-48.57143 0,-26.82526 21.74617,-48.57143 48.57143,-48.57143 26.82526,0 48.57143,21.74617 48.57143,48.57143 z" sodipodi:ry="48.57143" sodipodi:rx="48.57143" sodipodi:cy="-154.78067" sodipodi:cx="-431.42856" id="path4000" style="fill:#ffffff;fill-opacity:1;stroke:none" sodipodi:type="arc"/>
      <path transform="matrix(0.74549453,0,0,1,-101.07685,-66.670068)" sodipodi:type="arc" style="fill:#ffffff;fill-opacity:1;stroke:none" id="path4002" sodipodi:cx="-431.42856" sodipodi:cy="-154.78067" sodipodi:rx="48.57143" sodipodi:ry="48.57143" d="m -382.85713,-154.78067 c 0,26.82526 -21.74617,48.57143 -48.57143,48.57143 -26.82526,0 -48.57143,-21.74617 -48.57143,-48.57143 0,-26.82526 21.74617,-48.57143 48.57143,-48.57143 26.82526,0 48.57143,21.74617 48.57143,48.57143 z"/>
      <path d="m -382.85713,-154.78067 c 0,26.82526 -21.74617,48.57143 -48.57143,48.57143 -26.82526,0 -48.57143,-21.74617 -48.57143,-48.57143 0,-26.82526 21.74617,-48.57143 48.57143,-48.57143 26.82526,0 48.57143,21.74617 48.57143,48.57143 z" sodipodi:ry="48.57143" sodipodi:rx="48.57143" sodipodi:cy="-154.78067" sodipodi:cx="-431.42856" id="path4004" style="fill:#ffffff;fill-opacity:1;stroke:none" sodipodi:type="arc" transform="matrix(0.90053697,0,0,1,-1.0523442,-127.27923)"/>
      <path transform="matrix(0.90053697,0,0,1,35.094695,-177.78685)" sodipodi:type="arc" style="fill:#ffffff;fill-opacity:1;stroke:none" id="path4006" sodipodi:cx="-431.42856" sodipodi:cy="-154.78067" sodipodi:rx="48.57143" sodipodi:ry="48.57143" d="m -382.85713,-154.78067 c 0,26.82526 -21.74617,48.57143 -48.57143,48.57143 -26.82526,0 -48.57143,-21.74617 -48.57143,-48.57143 0,-26.82526 21.74617,-48.57143 48.57143,-48.57143 26.82526,0 48.57143,21.74617 48.57143,48.57143 z"/>
      <path d="m -382.85713,-154.78067 c 0,26.82526 -21.74617,48.57143 -48.57143,48.57143 -26.82526,0 -48.57143,-21.74617 -48.57143,-48.57143 0,-26.82526 21.74617,-48.57143 48.57143,-48.57143 26.82526,0 48.57143,21.74617 48.57143,48.57143 z" sodipodi:ry="48.57143" sodipodi:rx="48.57143" sodipodi:cy="-154.78067" sodipodi:cx="-431.42856" id="path4008" style="fill:#ffffff;fill-opacity:1;stroke:none" sodipodi:type="arc" transform="matrix(0.90053697,0,0,1,74.25398,-224.25387)"/>
      <path transform="matrix(0.90053697,0,0,1,126.96841,-262.63967)" sodipodi:type="arc" style="fill:#ffffff;fill-opacity:1;stroke:none" id="path4010" sodipodi:cx="-431.42856" sodipodi:cy="-154.78067" sodipodi:rx="48.57143" sodipodi:ry="48.57143" d="m -382.85713,-154.78067 c 0,26.82526 -21.74617,48.57143 -48.57143,48.57143 -26.82526,0 -48.57143,-21.74617 -48.57143,-48.57143 0,-26.82526 21.74617,-48.57143 48.57143,-48.57143 26.82526,0 48.57143,21.74617 48.57143,48.57143 z"/>
      <path d="m -382.85713,-154.78067 c 0,26.82526 -21.74617,48.57143 -48.57143,48.57143 -26.82526,0 -48.57143,-21.74617 -48.57143,-48.57143 0,-26.82526 21.74617,-48.57143 48.57143,-48.57143 26.82526,0 48.57143,21.74617 48.57143,48.57143 z" sodipodi:ry="48.57143" sodipodi:rx="48.57143" sodipodi:cy="-154.78067" sodipodi:cx="-431.42856" id="path4012" style="fill:#ffffff;fill-opacity:1;stroke:none" sodipodi:type="arc" transform="matrix(0.90053697,0,0,1,176.67058,-276.78181)"/>
      <path transform="matrix(0.90053697,0,0,1,230.89113,-276.78181)" sodipodi:type="arc" style="fill:#ffffff;fill-opacity:1;stroke:none" id="path4014" sodipodi:cx="-431.42856" sodipodi:cy="-154.78067" sodipodi:rx="48.57143" sodipodi:ry="48.57143" d="m -382.85713,-154.78067 c 0,26.82526 -21.74617,48.57143 -48.57143,48.57143 -26.82526,0 -48.57143,-21.74617 -48.57143,-48.57143 0,-26.82526 21.74617,-48.57143 48.57143,-48.57143 26.82526,0 48.57143,21.74617 48.57143,48.57143 z"/>
      <path transform="matrix(-0.74549453,0,0,1,-235.2614,0)" sodipodi:type="arc" style="fill:#ffffff;fill-opacity:1;stroke:none" id="path4016" sodipodi:cx="-431.42856" sodipodi:cy="-154.78067" sodipodi:rx="48.57143" sodipodi:ry="48.57143" d="m -382.85713,-154.78067 c 0,26.82526 -21.74617,48.57143 -48.57143,48.57143 -26.82526,0 -48.57143,-21.74617 -48.57143,-48.57143 0,-26.82526 21.74617,-48.57143 48.57143,-48.57143 26.82526,0 48.57143,21.74617 48.57143,48.57143 z"/>
      <path d="m -382.85713,-154.78067 c 0,26.82526 -21.74617,48.57143 -48.57143,48.57143 -26.82526,0 -48.57143,-21.74617 -48.57143,-48.57143 0,-26.82526 21.74617,-48.57143 48.57143,-48.57143 26.82526,0 48.57143,21.74617 48.57143,48.57143 z" sodipodi:ry="48.57143" sodipodi:rx="48.57143" sodipodi:cy="-154.78067" sodipodi:cx="-431.42856" id="path4018" style="fill:#ffffff;fill-opacity:1;stroke:none" sodipodi:type="arc" transform="matrix(-0.74549453,0,0,1,-256.34716,-66.670068)"/>
      <path transform="matrix(-0.90053697,0,0,1,-356.37167,-127.27923)" sodipodi:type="arc" style="fill:#ffffff;fill-opacity:1;stroke:none" id="path4020" sodipodi:cx="-431.42856" sodipodi:cy="-154.78067" sodipodi:rx="48.57143" sodipodi:ry="48.57143" d="m -382.85713,-154.78067 c 0,26.82526 -21.74617,48.57143 -48.57143,48.57143 -26.82526,0 -48.57143,-21.74617 -48.57143,-48.57143 0,-26.82526 21.74617,-48.57143 48.57143,-48.57143 26.82526,0 48.57143,21.74617 48.57143,48.57143 z"/>
      <path d="m -382.85713,-154.78067 c 0,26.82526 -21.74617,48.57143 -48.57143,48.57143 -26.82526,0 -48.57143,-21.74617 -48.57143,-48.57143 0,-26.82526 21.74617,-48.57143 48.57143,-48.57143 26.82526,0 48.57143,21.74617 48.57143,48.57143 z" sodipodi:ry="48.57143" sodipodi:rx="48.57143" sodipodi:cy="-154.78067" sodipodi:cx="-431.42856" id="path4022" style="fill:#ffffff;fill-opacity:1;stroke:none" sodipodi:type="arc" transform="matrix(-0.90053697,0,0,1,-392.51871,-177.78685)"/>
      <path transform="matrix(-0.90053697,0,0,1,-431.678,-224.25387)" sodipodi:type="arc" style="fill:#ffffff;fill-opacity:1;stroke:none" id="path4024" sodipodi:cx="-431.42856" sodipodi:cy="-154.78067" sodipodi:rx="48.57143" sodipodi:ry="48.57143" d="m -382.85713,-154.78067 c 0,26.82526 -21.74617,48.57143 -48.57143,48.57143 -26.82526,0 -48.57143,-21.74617 -48.57143,-48.57143 0,-26.82526 21.74617,-48.57143 48.57143,-48.57143 26.82526,0 48.57143,21.74617 48.57143,48.57143 z"/>
      <path d="m -382.85713,-154.78067 c 0,26.82526 -21.74617,48.57143 -48.57143,48.57143 -26.82526,0 -48.57143,-21.74617 -48.57143,-48.57143 0,-26.82526 21.74617,-48.57143 48.57143,-48.57143 26.82526,0 48.57143,21.74617 48.57143,48.57143 z" sodipodi:ry="48.57143" sodipodi:rx="48.57143" sodipodi:cy="-154.78067" sodipodi:cx="-431.42856" id="path4026" style="fill:#ffffff;fill-opacity:1;stroke:none" sodipodi:type="arc" transform="matrix(-0.90053697,0,0,1,-484.39242,-262.63967)"/>
      <path transform="matrix(-0.90053697,0,0,1,-534.09459,-276.78181)" sodipodi:type="arc" style="fill:#ffffff;fill-opacity:1;stroke:none" id="path4028" sodipodi:cx="-431.42856" sodipodi:cy="-154.78067" sodipodi:rx="48.57143" sodipodi:ry="48.57143" d="m -382.85713,-154.78067 c 0,26.82526 -21.74617,48.57143 -48.57143,48.57143 -26.82526,0 -48.57143,-21.74617 -48.57143,-48.57143 0,-26.82526 21.74617,-48.57143 48.57143,-48.57143 26.82526,0 48.57143,21.74617 48.57143,48.57143 z"/>
      <path d="m -382.85713,-154.78067 c 0,26.82526 -21.74617,48.57143 -48.57143,48.57143 -26.82526,0 -48.57143,-21.74617 -48.57143,-48.57143 0,-26.82526 21.74617,-48.57143 48.57143,-48.57143 26.82526,0 48.57143,21.74617 48.57143,48.57143 z" sodipodi:ry="48.57143" sodipodi:rx="48.57143" sodipodi:cy="-154.78067" sodipodi:cx="-431.42856" id="path4030" style="fill:#ffffff;fill-opacity:1;stroke:none" sodipodi:type="arc" transform="matrix(-0.90053697,0,0,1,-588.31514,-276.78181)"/>
      <path transform="matrix(1.2377554,0,0,1.1219428,69.319297,36.957639)" d="m 8.5714264,-197.63782 c 0,109.667973 -94.0202024,198.57142901 -209.9999964,198.57142901 -115.9798,0 -210,-88.90345601 -210,-198.57142901 0,-109.66797 94.0202,-198.57142 210,-198.57142 115.979794,0 209.9999964,88.90345 209.9999964,198.57142 z" sodipodi:ry="198.57143" sodipodi:rx="210" sodipodi:cy="-197.63782" sodipodi:cx="-201.42857" id="path3043" style="fill:#ffffff;fill-opacity:1;stroke:none" sodipodi:type="arc"/>
    </g>
    <path sodipodi:type="arc" style="fill:#502d16;fill-opacity:1;stroke:#000000;stroke-width:5.86890173;stroke-miterlimit:4;stroke-opacity:1;stroke-dasharray:none" id="path3068" sodipodi:cx="-671.24634" sodipodi:cy="216.46095" sodipodi:rx="111.62186" sodipodi:ry="111.62186" d="m -559.62448,216.46095 a 111.62186,111.62186 0 1 1 -223.24371,0 111.62186,111.62186 0 1 1 223.24371,0 z" transform="matrix(0.13297821,0,0,0.13297821,448.48424,498.36749)"/>
    <path style="fill:none;stroke:#502d16;stroke-width:2;stroke-linecap:butt;stroke-linejoin:miter;stroke-opacity:1;stroke-miterlimit:4;stroke-dasharray:none" d="m 323.96552,545.35529 c 0,0 10.92837,10.73753 17.54486,9.74714 6.02216,-0.90143 19.49428,-13.15864 19.49428,-13.15864 0,0 9.97222,13.92315 16.27772,14.62072 7.94478,0.87892 21.44371,-14.13336 21.44371,-14.13336" id="path3070" inkscape:connector-curvature="0" sodipodi:nodetypes="cscsc"/>
  </g>
</svg>
