<?xml version="1.0" encoding="UTF-8" standalone="no"?>
<!-- Created with Inkscape (http://www.inkscape.org/) -->

<svg
   xmlns:dc="http://purl.org/dc/elements/1.1/"
   xmlns:cc="http://creativecommons.org/ns#"
   xmlns:rdf="http://www.w3.org/1999/02/22-rdf-syntax-ns#"
   xmlns:svg="http://www.w3.org/2000/svg"
   xmlns="http://www.w3.org/2000/svg"
   xmlns:inkscape="http://www.inkscape.org/namespaces/inkscape"
   version="1.1"
   width="323.75"
   height="338.75"
   id="svg2"
   xml:space="preserve"><metadata
     id="metadata8"><rdf:RDF><cc:Work
         rdf:about=""><dc:format>image/svg+xml</dc:format><dc:type
           rdf:resource="http://purl.org/dc/dcmitype/StillImage" /></cc:Work></rdf:RDF></metadata><defs
     id="defs6"><clipPath
       id="clipPath18"><path
         d="m 0,-858 1079,0 0,1129 L 0,271 0,-858 z"
         inkscape:connector-curvature="0"
         id="path20" /></clipPath><clipPath
       id="clipPath78"><path
         d="m 124,103 19,0 0,30 -19,0 0,-30 z"
         inkscape:connector-curvature="0"
         id="path80" /></clipPath><clipPath
       id="clipPath98"><path
         d="m 72,106 19,0 0,30 -19,0 0,-30 z"
         inkscape:connector-curvature="0"
         id="path100" /></clipPath><clipPath
       id="clipPath114"><path
         d="m 203,101 19,0 0,30 -19,0 0,-30 z"
         inkscape:connector-curvature="0"
         id="path116" /></clipPath><clipPath
       id="clipPath130"><path
         d="m 102,101 19,0 0,30 -19,0 0,-30 z"
         inkscape:connector-curvature="0"
         id="path132" /></clipPath><clipPath
       id="clipPath146"><path
         d="m 166,103 19,0 0,30 -19,0 0,-30 z"
         inkscape:connector-curvature="0"
         id="path148" /></clipPath><clipPath
       id="clipPath172"><path
         d="m 178,241 18,0 0,30 -18,0 0,-30 z"
         inkscape:connector-curvature="0"
         id="path174" /></clipPath></defs><g
     transform="matrix(1.25,0,0,-1.25,0,338.75)"
     id="g10"><g
       id="g12" /><g
       id="g14"><g
         clip-path="url(#clipPath18)"
         id="g16"><g
           transform="translate(0,260)"
           id="g22"><text
             transform="scale(1,-1)"
             id="text24"><tspan
               x="0"
               y="0"
               id="tspan26"
               style="font-size:12px;font-variant:normal;font-weight:normal;writing-mode:lr-tb;fill:#000000;fill-opacity:1;fill-rule:nonzero;stroke:none;font-family:Cambria;-inkscape-font-specification:Cambria"> </tspan></text>
</g></g></g><g
       id="g28"><g
         transform="matrix(1,0,0,-1,0,271)"
         id="g30"><path
           d="M 255,139.5 C 255,209.9163 197.9163,267 127.5,267 57.08369,267 0,209.9163 0,139.5 0,69.08369 57.08369,12 127.5,12 197.9163,12 255,69.08369 255,139.5 z"
           inkscape:connector-curvature="0"
           id="path32"
           style="fill:#ffffff;fill-opacity:1;fill-rule:nonzero;stroke:#000000;stroke-width:1;stroke-linecap:butt;stroke-linejoin:miter;stroke-miterlimit:10;stroke-opacity:1;stroke-dasharray:none" /></g><g
         transform="matrix(1,0,0,-1,0,271)"
         id="g34"><path
           d="m 198,140 c 0,39.2122 -31.7878,71 -71,71 -39.21222,0 -71,-31.7878 -71,-71 0,-39.2122 31.78778,-71 71,-71 39.2122,0 71,31.7878 71,71 z"
           inkscape:connector-curvature="0"
           id="path36"
           style="fill:#ffffff;fill-opacity:1;fill-rule:nonzero;stroke:#000000;stroke-width:1;stroke-linecap:butt;stroke-linejoin:miter;stroke-miterlimit:10;stroke-opacity:1;stroke-dasharray:none" /></g><g
         transform="matrix(1,0,0,-1,0,271)"
         id="g38"><path
           d="m 164,141 c 0,19.8823 -16.1178,36 -36,36 -19.8823,0 -36,-16.1177 -36,-36 0,-19.8822 16.1177,-36 36,-36 19.8822,0 36,16.1178 36,36 z"
           inkscape:connector-curvature="0"
           id="path40"
           style="fill:#ffffff;fill-opacity:1;fill-rule:nonzero;stroke:#000000;stroke-width:1;stroke-linecap:butt;stroke-linejoin:miter;stroke-miterlimit:10;stroke-opacity:1;stroke-dasharray:none" /></g><g
         transform="matrix(1,0,0,-1,0.5,270.5)"
         id="g42"><path
           d="m 91,140 108,1"
           inkscape:connector-curvature="0"
           id="path44"
           style="fill:none;stroke:#000000;stroke-width:1;stroke-linecap:round;stroke-linejoin:round;stroke-miterlimit:8;stroke-opacity:1;stroke-dasharray:none" /></g><g
         transform="matrix(1,0,0,-1,0,271)"
         id="g46"><path
           d="m 96.6875,140.5 c 0,2.865 -2.32253,5.1875 -5.1875,5.1875 -2.86497,0 -5.1875,-2.3225 -5.1875,-5.1875 0,-2.865 2.32253,-5.1875 5.1875,-5.1875 2.86497,0 5.1875,2.3225 5.1875,5.1875 z"
           inkscape:connector-curvature="0"
           id="path48"
           style="fill:#000000;fill-opacity:1;fill-rule:nonzero;stroke:#000000;stroke-width:1;stroke-linecap:butt;stroke-linejoin:miter;stroke-miterlimit:10;stroke-opacity:1;stroke-dasharray:none" /></g><g
         transform="matrix(1,0,0,-1,0,271)"
         id="g50"><path
           d="m 203.0625,141.5 c 0,1.9675 -1.595,3.5625 -3.5625,3.5625 -1.9675,0 -3.5625,-1.595 -3.5625,-3.5625 0,-1.9675 1.595,-3.5625 3.5625,-3.5625 1.9675,0 3.5625,1.595 3.5625,3.5625 z"
           inkscape:connector-curvature="0"
           id="path52"
           style="fill:#000000;fill-opacity:1;fill-rule:nonzero;stroke:#000000;stroke-width:1;stroke-linecap:butt;stroke-linejoin:miter;stroke-miterlimit:10;stroke-opacity:1;stroke-dasharray:none" /></g><g
         transform="matrix(1,0,0,-1,0.5,270.5)"
         id="g54"><path
           d="M 128,140 172,21"
           inkscape:connector-curvature="0"
           id="path56"
           style="fill:none;stroke:#000000;stroke-width:1;stroke-linecap:round;stroke-linejoin:round;stroke-miterlimit:8;stroke-opacity:1;stroke-dasharray:none" /></g><g
         transform="matrix(1,0,0,-1,0,271)"
         id="g58"><path
           d="m 130.8125,140.5 c 0,1.2772 -1.0353,2.3125 -2.3125,2.3125 -1.2772,0 -2.3125,-1.0353 -2.3125,-2.3125 0,-1.2772 1.0353,-2.3125 2.3125,-2.3125 1.2772,0 2.3125,1.0353 2.3125,2.3125 z"
           inkscape:connector-curvature="0"
           id="path60"
           style="fill:#000000;fill-opacity:1;fill-rule:nonzero;stroke:#000000;stroke-width:1;stroke-linecap:butt;stroke-linejoin:miter;stroke-miterlimit:10;stroke-opacity:1;stroke-dasharray:none" /></g><g
         transform="matrix(1,0,0,-1,0,271)"
         id="g62"><path
           d="m 174.8125,21.5 c 0,1.27716 -1.0353,2.3125 -2.3125,2.3125 -1.2772,0 -2.3125,-1.03534 -2.3125,-2.3125 0,-1.27716 1.0353,-2.3125 2.3125,-2.3125 1.2772,0 2.3125,1.03534 2.3125,2.3125 z"
           inkscape:connector-curvature="0"
           id="path64"
           style="fill:#000000;fill-opacity:1;fill-rule:nonzero;stroke:#000000;stroke-width:1;stroke-linecap:butt;stroke-linejoin:miter;stroke-miterlimit:10;stroke-opacity:1;stroke-dasharray:none" /></g><g
         transform="matrix(1,0,0,-1,0.5,270.5)"
         id="g66"><path
           d="M 172,21 91,140"
           inkscape:connector-curvature="0"
           id="path68"
           style="fill:none;stroke:#000000;stroke-width:1;stroke-linecap:round;stroke-linejoin:round;stroke-miterlimit:8;stroke-opacity:1;stroke-dasharray:none" /></g><g
         transform="matrix(1,0,0,-1,0.5,270.5)"
         id="g70"><path
           d="m 172,21 26,120"
           inkscape:connector-curvature="0"
           id="path72"
           style="fill:none;stroke:#000000;stroke-width:1;stroke-linecap:round;stroke-linejoin:round;stroke-miterlimit:8;stroke-opacity:1;stroke-dasharray:none" /></g></g><g
       id="g74"><g
         clip-path="url(#clipPath78)"
         id="g76"><g
           transform="translate(124,114)"
           id="g82"><text
             transform="scale(1,-1)"
             id="text84"><tspan
               x="0"
               y="0"
               id="tspan86"
               style="font-size:12px;font-variant:normal;font-weight:normal;writing-mode:lr-tb;fill:#000000;fill-opacity:1;fill-rule:nonzero;stroke:none;font-family:Cambria;-inkscape-font-specification:Cambria">O</tspan></text>
</g><g
           transform="translate(131.8398,114)"
           id="g88"><text
             transform="scale(1,-1)"
             id="text90"><tspan
               x="0"
               y="0"
               id="tspan92"
               style="font-size:12px;font-variant:normal;font-weight:normal;writing-mode:lr-tb;fill:#000000;fill-opacity:1;fill-rule:nonzero;stroke:none;font-family:Cambria;-inkscape-font-specification:Cambria"> </tspan></text>
</g></g></g><g
       id="g94"><g
         clip-path="url(#clipPath98)"
         id="g96"><g
           transform="translate(72,117)"
           id="g102"><text
             transform="matrix(0.9701425,0,-0.24253563,-0.9701425,0,0)"
             id="text104"><tspan
               x="0"
               y="0"
               id="tspan106"
               style="font-size:12.36931705px;font-style:italic;font-variant:normal;font-weight:bold;writing-mode:lr-tb;fill:#000000;fill-opacity:1;fill-rule:nonzero;stroke:none;font-family:Athelas;-inkscape-font-specification:Athelas-BoldItalic">M</tspan></text>
</g><g
           transform="translate(82.48828,117)"
           id="g108" /></g></g><g
       id="g110"><g
         clip-path="url(#clipPath114)"
         id="g112"><g
           transform="translate(203,113)"
           id="g118"><text
             transform="matrix(0.9701425,0,-0.24253563,-0.9701425,0,0)"
             id="text120"><tspan
               x="0"
               y="0"
               id="tspan122"
               style="font-size:12.36931705px;font-style:italic;font-variant:normal;font-weight:bold;writing-mode:lr-tb;fill:#000000;fill-opacity:1;fill-rule:nonzero;stroke:none;font-family:Athelas;-inkscape-font-specification:Athelas-BoldItalic">m</tspan></text>
</g><g
           transform="translate(212.0293,113)"
           id="g124" /></g></g><g
       id="g126"><g
         clip-path="url(#clipPath130)"
         id="g128"><g
           transform="translate(102,113)"
           id="g134"><text
             transform="matrix(0.9701425,0,-0.24253563,-0.9701425,0,0)"
             id="text136"><tspan
               x="0"
               y="0"
               id="tspan138"
               style="font-size:12.36931705px;font-style:italic;font-variant:normal;font-weight:bold;writing-mode:lr-tb;fill:#000000;fill-opacity:1;fill-rule:nonzero;stroke:none;font-family:Athelas;-inkscape-font-specification:Athelas-BoldItalic">R</tspan></text>
</g><g
           transform="translate(109.2949,113)"
           id="g140" /></g></g><g
       id="g142"><g
         clip-path="url(#clipPath146)"
         id="g144"><g
           transform="translate(166,115)"
           id="g150"><text
             transform="matrix(0.9701425,0,-0.24253563,-0.9701425,0,0)"
             id="text152"><tspan
               x="0"
               y="0"
               id="tspan154"
               style="font-size:12.36931705px;font-style:italic;font-variant:normal;font-weight:bold;writing-mode:lr-tb;fill:#000000;fill-opacity:1;fill-rule:nonzero;stroke:none;font-family:Athelas;-inkscape-font-specification:Athelas-BoldItalic">r</tspan></text>
</g><g
           transform="translate(170.5469,115)"
           id="g156" /></g></g><g
       id="g158"><g
         transform="matrix(1,0,0,-1,0.5,270.5)"
         id="g160"><path
           d="m 130,144 c 0,1 2,2 5,2 l 22,0 c 4,0 6,0 6,1 0,-1 3,-1 6,-1 l 22,0 c 3,0 5,-1 5,-2"
           inkscape:connector-curvature="0"
           id="path162"
           style="fill:none;stroke:#000000;stroke-width:1;stroke-linecap:round;stroke-linejoin:round;stroke-miterlimit:8;stroke-opacity:1;stroke-dasharray:none" /></g><g
         transform="matrix(1,0,0,-1,0.5,270.5)"
         id="g164"><path
           d="m 96,145 c 0,0 1,1 2,1 l 10,0 c 1,0 2,1 2,2 0,-1 1,-2 2,-2 l 10,0 c 1,0 2,-1 2,-1"
           inkscape:connector-curvature="0"
           id="path166"
           style="fill:none;stroke:#000000;stroke-width:1;stroke-linecap:round;stroke-linejoin:round;stroke-miterlimit:8;stroke-opacity:1;stroke-dasharray:none" /></g></g><g
       id="g168"><g
         clip-path="url(#clipPath172)"
         id="g170"><g
           transform="translate(178,253)"
           id="g176"><text
             transform="matrix(0.9701425,0,-0.24253563,-0.9701425,0,0)"
             id="text178"><tspan
               x="0"
               y="0"
               id="tspan180"
               style="font-size:12.36931705px;font-variant:normal;font-weight:normal;writing-mode:lr-tb;fill:#000000;fill-opacity:1;fill-rule:nonzero;stroke:none;font-family:Symbol;-inkscape-font-specification:Symbol">µ</tspan></text>
</g><g
           transform="translate(184.9141,253)"
           id="g182" /></g></g><g
       id="g184"><g
         transform="matrix(1,0,0,-1,0.5,270.5)"
         id="g186"><path
           d="M 30,57 C 54,28 90,12 128,12 198,12 255,69 255,140 255,210 198,267 128,267 57,267 0,210 0,140 0,114 8,88 23,67"
           inkscape:connector-curvature="0"
           id="path188"
           style="fill:none;stroke:#000000;stroke-width:1;stroke-linecap:round;stroke-linejoin:round;stroke-miterlimit:8;stroke-opacity:1;stroke-dasharray:none" /></g><path
         d="m 29.5,217.5 -1,-9 7,4 -4,1 -2,4 z"
         inkscape:connector-curvature="0"
         id="path190"
         style="fill:#000000;fill-opacity:1;fill-rule:evenodd;stroke:none" /><g
         transform="matrix(1,0,0,-1,0.5,270.5)"
         id="g192"><path
           d="m 74,94 c 14,-16 32,-25 53,-25 39,0 71,32 71,71 0,39 -32,71 -71,71 -39,0 -71,-32 -71,-71 0,-14 5,-28 13,-40"
           inkscape:connector-curvature="0"
           id="path194"
           style="fill:none;stroke:#000000;stroke-width:1;stroke-linecap:round;stroke-linejoin:round;stroke-miterlimit:8;stroke-opacity:1;stroke-dasharray:none" /></g><path
         d="m 74.5,181.5 -2,-9 8,3 -5,1 -1,5 z"
         inkscape:connector-curvature="0"
         id="path196"
         style="fill:#000000;fill-opacity:1;fill-rule:evenodd;stroke:none" /><g
         transform="matrix(1,0,0,-1,0.5,270.5)"
         id="g198"><path
           d="m 101,115 c 7,-6 16,-10 26,-10 20,0 36,16 36,36 0,19 -16,36 -36,36 -20,0 -36,-17 -36,-36 0,-8 2,-15 6,-21"
           inkscape:connector-curvature="0"
           id="path200"
           style="fill:none;stroke:#000000;stroke-width:1;stroke-linecap:round;stroke-linejoin:round;stroke-miterlimit:8;stroke-opacity:1;stroke-dasharray:none" /></g><path
         d="m 101.5,160.5 -3,-8 9,2 -5,1 -1,5 z"
         inkscape:connector-curvature="0"
         id="path202"
         style="fill:#000000;fill-opacity:1;fill-rule:evenodd;stroke:none" /></g></g></svg>