<?xml version="1.0" encoding="UTF-8" standalone="no"?>
<!-- Created with Inkscape (http://www.inkscape.org/) -->

<svg
   xmlns:dc="http://purl.org/dc/elements/1.1/"
   xmlns:cc="http://creativecommons.org/ns#"
   xmlns:rdf="http://www.w3.org/1999/02/22-rdf-syntax-ns#"
   xmlns:svg="http://www.w3.org/2000/svg"
   xmlns="http://www.w3.org/2000/svg"
   xmlns:inkscape="http://www.inkscape.org/namespaces/inkscape"
   version="1.1"
   width="498.75"
   height="137.5"
   id="svg2"
   xml:space="preserve"><metadata
     id="metadata8"><rdf:RDF><cc:Work
         rdf:about=""><dc:format>image/svg+xml</dc:format><dc:type
           rdf:resource="http://purl.org/dc/dcmitype/StillImage" /></cc:Work></rdf:RDF></metadata><defs
     id="defs6"><clipPath
       id="clipPath18"><path
         d="m 0,-348 1663,0 0,458 -1663,0 0,-458 z"
         inkscape:connector-curvature="0"
         id="path20" /></clipPath><clipPath
       id="clipPath42"><path
         d="m 45,40 47,0 0,38 -47,0 0,-38 z"
         inkscape:connector-curvature="0"
         id="path44" /></clipPath><clipPath
       id="clipPath78"><path
         d="m 252,68 21,0 0,12 -21,0 0,-12 z"
         inkscape:connector-curvature="0"
         id="path80" /></clipPath><clipPath
       id="clipPath104"><path
         d="m 344,70 16,0 0,6 -16,0 0,-6 z"
         inkscape:connector-curvature="0"
         id="path106" /></clipPath><clipPath
       id="clipPath118"><path
         d="m 357,69 22,0 0,11 -22,0 0,-11 z"
         inkscape:connector-curvature="0"
         id="path120" /></clipPath><clipPath
       id="clipPath140"><path
         d="m 308,16 16,0 0,6 -16,0 0,-6 z"
         inkscape:connector-curvature="0"
         id="path142" /></clipPath><clipPath
       id="clipPath152"><path
         d="m 325,13 23,0 0,11 -23,0 0,-11 z"
         inkscape:connector-curvature="0"
         id="path154" /></clipPath></defs><g
     transform="matrix(1.25,0,0,-1.25,0,137.5)"
     id="g10"><g
       id="g12" /><g
       id="g14"><g
         clip-path="url(#clipPath18)"
         id="g16"><g
           transform="translate(0,99)"
           id="g22"><text
             transform="scale(1,-1)"
             id="text24"><tspan
               x="0"
               y="0"
               id="tspan26"
               style="font-size:12px;font-variant:normal;font-weight:normal;writing-mode:lr-tb;fill:#000000;fill-opacity:1;fill-rule:nonzero;stroke:none;font-family:Cambria;-inkscape-font-specification:Cambria"> </tspan></text>
</g></g></g><g
       id="g28"><g
         transform="matrix(1,0,0,-1,0,110)"
         id="g30"><path
           d="m 0.5,0.5 397,0 0,109 -397,0 0,-109 z"
           inkscape:connector-curvature="0"
           id="path32"
           style="fill:none;stroke:#000000;stroke-width:1;stroke-linecap:round;stroke-linejoin:miter;stroke-miterlimit:8;stroke-opacity:1;stroke-dasharray:none" /></g><g
         transform="matrix(1,0,0,-1,0,110)"
         id="g34"><path
           d="M 100,50.5 C 100,67.89697 85.89697,82 68.5,82 51.10303,82 37,67.89697 37,50.5 37,33.10303 51.10303,19 68.5,19 85.89697,19 100,33.10303 100,50.5 z"
           inkscape:connector-curvature="0"
           id="path36"
           style="fill:#bfbfbf;fill-opacity:1;fill-rule:nonzero;stroke:#000000;stroke-width:2;stroke-linecap:butt;stroke-linejoin:miter;stroke-miterlimit:10;stroke-opacity:1;stroke-dasharray:none" /></g></g><g
       id="g38"><g
         clip-path="url(#clipPath42)"
         id="g40"><g
           transform="translate(54.24683,56)"
           id="g46"><text
             transform="scale(1,-1)"
             id="text48"><tspan
               x="0 6.9024 12.7608 17.7192 21.777599"
               y="0"
               id="tspan50"
               style="font-size:12px;font-variant:normal;font-weight:normal;writing-mode:lr-tb;fill:#000000;fill-opacity:1;fill-rule:nonzero;stroke:none;font-family:Cambria;-inkscape-font-specification:Cambria">Earth</tspan></text>
</g><g
           transform="translate(82.65308,56)"
           id="g52"><text
             transform="scale(1,-1)"
             id="text54"><tspan
               x="0"
               y="0"
               id="tspan56"
               style="font-size:12px;font-variant:normal;font-weight:normal;writing-mode:lr-tb;fill:#000000;fill-opacity:1;fill-rule:nonzero;stroke:none;font-family:Cambria;-inkscape-font-specification:Cambria"> </tspan></text>
</g></g></g><g
       id="g58"><g
         transform="matrix(1,0,0,-1,0.5,109.5)"
         id="g60"><path
           d="M 28,55 14,55"
           inkscape:connector-curvature="0"
           id="path62"
           style="fill:none;stroke:#000000;stroke-width:3;stroke-linecap:butt;stroke-linejoin:round;stroke-miterlimit:8;stroke-opacity:1;stroke-dasharray:none" /></g><path
         d="m 15.5,60.5 -13,-7 13,-6 0,13 z"
         inkscape:connector-curvature="0"
         id="path64"
         style="fill:#000000;fill-opacity:1;fill-rule:evenodd;stroke:none" /><g
         transform="matrix(1,0,0,-1,0,110)"
         id="g66"><path
           d="M 356,51.5 C 356,73.86754 337.8675,92 315.5,92 293.1325,92 275,73.86754 275,51.5 275,29.13247 293.1325,11 315.5,11 337.8675,11 356,29.13247 356,51.5 z"
           inkscape:connector-curvature="0"
           id="path68"
           style="fill:none;stroke:#000000;stroke-width:1;stroke-linecap:butt;stroke-linejoin:round;stroke-miterlimit:8;stroke-opacity:1;stroke-dasharray:0.5, 1.5;stroke-dashoffset:0" /></g><g
         transform="matrix(1,0,0,-1,0,110)"
         id="g70"><path
           d="m 289,37 c 0,4.97057 -4.0294,9 -9,9 -4.9706,0 -9,-4.02943 -9,-9 0,-4.97057 4.0294,-9 9,-9 4.9706,0 9,4.02943 9,9 z"
           inkscape:connector-curvature="0"
           id="path72"
           style="fill:#bfbfbf;fill-opacity:1;fill-rule:nonzero;stroke:#000000;stroke-width:2;stroke-linecap:butt;stroke-linejoin:miter;stroke-miterlimit:10;stroke-opacity:1;stroke-dasharray:none" /></g></g><g
       id="g74"><g
         clip-path="url(#clipPath78)"
         id="g76"><g
           transform="translate(259,69)"
           id="g82"><text
             transform="scale(1,-1)"
             id="text84"><tspan
               x="0"
               y="0"
               id="tspan86"
               style="font-size:12px;font-variant:normal;font-weight:normal;writing-mode:lr-tb;fill:#000000;fill-opacity:1;fill-rule:nonzero;stroke:none;font-family:Cambria;-inkscape-font-specification:Cambria">C</tspan></text>
</g><g
           transform="translate(265.75,69)"
           id="g88"><text
             transform="scale(1,-1)"
             id="text90"><tspan
               x="0"
               y="0"
               id="tspan92"
               style="font-size:12px;font-variant:normal;font-weight:normal;writing-mode:lr-tb;fill:#000000;fill-opacity:1;fill-rule:nonzero;stroke:none;font-family:Cambria;-inkscape-font-specification:Cambria"> </tspan></text>
</g></g></g><g
       id="g94"><g
         transform="matrix(1,0,0,-1,0,110)"
         id="g96"><path
           d="m 361,37 c 0,4.97057 -4.0294,9 -9,9 -4.9706,0 -9,-4.02943 -9,-9 0,-4.97057 4.0294,-9 9,-9 4.9706,0 9,4.02943 9,9 z"
           inkscape:connector-curvature="0"
           id="path98"
           style="fill:#bfbfbf;fill-opacity:1;fill-rule:nonzero;stroke:#000000;stroke-width:2;stroke-linecap:butt;stroke-linejoin:miter;stroke-miterlimit:10;stroke-opacity:1;stroke-dasharray:none" /></g></g><g
       id="g100"><g
         clip-path="url(#clipPath104)"
         id="g102"><g
           transform="translate(352,65)"
           id="g108"><text
             transform="scale(1,-1)"
             id="text110"><tspan
               x="0"
               y="0"
               id="tspan112"
               style="font-size:12px;font-variant:normal;font-weight:normal;writing-mode:lr-tb;fill:#000000;fill-opacity:1;fill-rule:nonzero;stroke:none;font-family:Cambria;-inkscape-font-specification:Cambria"> </tspan></text>
</g></g></g><g
       id="g114"><g
         clip-path="url(#clipPath118)"
         id="g116"><g
           transform="translate(364,70)"
           id="g122"><text
             transform="scale(1,-1)"
             id="text124"><tspan
               x="0"
               y="0"
               id="tspan126"
               style="font-size:12px;font-variant:normal;font-weight:normal;writing-mode:lr-tb;fill:#000000;fill-opacity:1;fill-rule:nonzero;stroke:none;font-family:Times New Roman;-inkscape-font-specification:TimesNewRomanPSMT">B</tspan></text>
</g><g
           transform="translate(372.0039,70)"
           id="g128" /></g></g><g
       id="g130"><g
         transform="matrix(1,0,0,-1,0,110)"
         id="g132"><path
           d="m 325,91 c 0,4.97057 -4.0294,9 -9,9 -4.9706,0 -9,-4.02943 -9,-9 0,-4.97057 4.0294,-9 9,-9 4.9706,0 9,4.02943 9,9 z"
           inkscape:connector-curvature="0"
           id="path134"
           style="fill:#bfbfbf;fill-opacity:1;fill-rule:nonzero;stroke:#000000;stroke-width:2;stroke-linecap:butt;stroke-linejoin:miter;stroke-miterlimit:10;stroke-opacity:1;stroke-dasharray:none" /></g></g><g
       id="g136"><g
         clip-path="url(#clipPath140)"
         id="g138"><g
           transform="translate(316,12)"
           id="g144" /><g
           transform="translate(319,12)"
           id="g146" /></g></g><g
       id="g148"><g
         clip-path="url(#clipPath152)"
         id="g150"><g
           transform="translate(332,14)"
           id="g156"><text
             transform="scale(1,-1)"
             id="text158"><tspan
               x="0"
               y="0"
               id="tspan160"
               style="font-size:12px;font-variant:normal;font-weight:normal;writing-mode:lr-tb;fill:#000000;fill-opacity:1;fill-rule:nonzero;stroke:none;font-family:Times New Roman;-inkscape-font-specification:TimesNewRomanPSMT">A</tspan></text>
</g><g
           transform="translate(340.666,14)"
           id="g162" /></g></g><g
       id="g164"><g
         transform="matrix(1,0,0,-1,0.5,109.5)"
         id="g166"><path
           d="m 316,10 -2,0"
           inkscape:connector-curvature="0"
           id="path168"
           style="fill:none;stroke:#000000;stroke-width:1;stroke-linecap:round;stroke-linejoin:round;stroke-miterlimit:8;stroke-opacity:1;stroke-dasharray:none" /></g><path
         d="m 315.5,102.5 -7,-3 7,-4 0,7 z"
         inkscape:connector-curvature="0"
         id="path170"
         style="fill:#000000;fill-opacity:1;fill-rule:evenodd;stroke:none" /><g
         transform="matrix(1,0,0,-1,0.5,109.5)"
         id="g172"><path
           d="m 277,64 1,3"
           inkscape:connector-curvature="0"
           id="path174"
           style="fill:none;stroke:#000000;stroke-width:1;stroke-linecap:round;stroke-linejoin:round;stroke-miterlimit:8;stroke-opacity:1;stroke-dasharray:none" /></g><path
         d="m 275.5,40.5 7,-5 0,8 -7,-3 z"
         inkscape:connector-curvature="0"
         id="path176"
         style="fill:#000000;fill-opacity:1;fill-rule:evenodd;stroke:none" /><g
         transform="matrix(1,0,0,-1,0.5,109.5)"
         id="g178"><path
           d="m 344,80 4,-4"
           inkscape:connector-curvature="0"
           id="path180"
           style="fill:none;stroke:#000000;stroke-width:1;stroke-linecap:round;stroke-linejoin:round;stroke-miterlimit:8;stroke-opacity:1;stroke-dasharray:none" /></g><path
         d="m 351.5,29.5 3,8 -9,-2 6,-6 z"
         inkscape:connector-curvature="0"
         id="path182"
         style="fill:#000000;fill-opacity:1;fill-rule:evenodd;stroke:none" /><g
         transform="matrix(1,0,0,-1,0.5,109.5)"
         id="g184"><path
           d="m 253,55 -14,0"
           inkscape:connector-curvature="0"
           id="path186"
           style="fill:none;stroke:#000000;stroke-width:3;stroke-linecap:butt;stroke-linejoin:round;stroke-miterlimit:8;stroke-opacity:1;stroke-dasharray:none" /></g><path
         d="m 240.5,60.5 -14,-7 14,-6 0,13 z"
         inkscape:connector-curvature="0"
         id="path188"
         style="fill:#000000;fill-opacity:1;fill-rule:evenodd;stroke:none" /></g></g></svg>